<?xml version="1.0" encoding="UTF-8"?>
<svg id="Camada_2" data-name="Camada 2" xmlns="http://www.w3.org/2000/svg" viewBox="0 0 1080 219.65">
  <defs>
    <style>
      .cls-1 {
        fill: #3c3c3c;
      }

      .cls-2 {
        fill: red;
      }

      .cls-3 {
        fill: #00cf00;
      }

      .cls-4 {
        fill: #222221;
      }

      .cls-5 {
        fill: #ffcf00;
      }

      .cls-6 {
        fill: #183eff;
      }
    </style>
  </defs>
  <g id="Camada_1-2" data-name="Camada 1">
    <g>
      <g>
        <path class="cls-4" d="M193.22,47.8v-17.3l-7.15,13.12h-2.25l-7.18-13.12v17.3h-3.82v-24.28h4.11l8.03,14.84,8.03-14.84h4.11v24.28h-3.87Z"/>
        <path class="cls-4" d="M209.39,47.8v-24.28h3.82v24.28h-3.82Z"/>
        <path class="cls-4" d="M229.35,30.63v17.16h-3.82v-24.28h3.14l13.76,17.55v-17.52h3.86v24.25h-3.36l-13.58-17.16Z"/>
        <path class="cls-4" d="M258.58,47.8v-24.28h3.82v24.28h-3.82Z"/>
        <path class="cls-4" d="M289.08,29.23c-.52-.58-1.41-1.14-2.67-1.67-1.26-.53-2.56-.8-3.89-.8-1.58,0-2.77.29-3.55.87-.79.59-1.18,1.41-1.18,2.48,0,.33.04.63.13.9s.2.5.34.71c.14.21.35.4.62.59s.56.35.83.48c.27.14.65.28,1.12.43s.92.28,1.33.38.95.24,1.62.41c1.07.26,1.98.51,2.74.76s1.49.57,2.19.95c.7.38,1.26.81,1.69,1.29.42.47.76,1.05,1.01,1.73.25.68.37,1.45.37,2.32,0,.97-.15,1.84-.46,2.62-.31.78-.73,1.44-1.26,1.97-.53.53-1.18.98-1.94,1.34s-1.57.62-2.44.79-1.8.24-2.81.24c-1.85,0-3.63-.28-5.36-.84-1.72-.56-3.28-1.37-4.66-2.43l1.75-3.29c.7.72,1.85,1.42,3.43,2.1,1.59.68,3.22,1.01,4.9,1.01,1.51,0,2.68-.27,3.5-.8s1.23-1.3,1.23-2.3c0-.4-.06-.76-.18-1.08s-.34-.62-.63-.88c-.3-.26-.61-.49-.93-.68s-.77-.38-1.35-.59c-.59-.2-1.12-.37-1.6-.5-.48-.14-1.14-.31-1.96-.52-1.28-.33-2.34-.67-3.17-1.02s-1.57-.77-2.21-1.27-1.11-1.09-1.39-1.78c-.29-.69-.43-1.49-.43-2.43,0-1.17.23-2.22.68-3.16s1.07-1.72,1.86-2.33c.79-.61,1.72-1.08,2.79-1.4,1.07-.32,2.23-.48,3.49-.48,2.98,0,5.71.91,8.2,2.74l-1.74,3.14Z"/>
        <path class="cls-4" d="M320.26,26.91h-8.07v20.89h-3.87v-20.89h-8.1v-3.39h20.04v3.39Z"/>
        <path class="cls-4" d="M346.99,44.41v3.39h-16.65v-24.28h16.35v3.39h-12.52v6.9h10.84v3.19h-10.84v7.41h12.82ZM340.2,21.01l-2.47-.75,1.95-3.76h3.59l-3.07,4.51Z"/>
        <path class="cls-4" d="M357.79,47.8v-24.28h10.57c1.06,0,2.06.23,3.01.69.95.46,1.75,1.06,2.4,1.8.64.74,1.16,1.59,1.54,2.54s.57,1.9.57,2.87c0,1.65-.43,3.14-1.3,4.47-.87,1.33-2.01,2.22-3.44,2.68l5.71,9.23h-4.31l-5.28-8.45h-5.64v8.45h-3.82ZM361.61,35.96h6.71c1.06,0,1.93-.44,2.62-1.33s1.04-1.95,1.04-3.21-.39-2.3-1.17-3.18c-.78-.89-1.68-1.33-2.71-1.33h-6.49v9.05Z"/>
        <path class="cls-4" d="M387.22,47.8v-24.28h3.82v24.28h-3.82Z"/>
        <path class="cls-4" d="M401.82,35.66c0-1.6.3-3.15.89-4.65s1.4-2.81,2.43-3.93c1.02-1.13,2.26-2.03,3.72-2.71,1.46-.68,3.01-1.02,4.64-1.02s3.26.36,4.72,1.07c1.47.71,2.7,1.65,3.68,2.81.98,1.16,1.76,2.48,2.33,3.96.57,1.47.85,2.98.85,4.5,0,1.6-.3,3.15-.89,4.64s-1.4,2.8-2.41,3.92c-1.01,1.13-2.25,2.02-3.71,2.7-1.46.68-3.01,1.01-4.64,1.01-1.36,0-2.65-.23-3.87-.68-1.23-.45-2.3-1.07-3.23-1.86-.93-.79-1.74-1.7-2.42-2.74-.68-1.04-1.2-2.16-1.56-3.37-.36-1.21-.53-2.43-.53-3.66ZM413.47,44.51c1.18,0,2.26-.26,3.26-.77.99-.51,1.8-1.19,2.44-2.03.63-.84,1.13-1.79,1.48-2.83.35-1.05.52-2.12.52-3.22s-.19-2.25-.56-3.32c-.37-1.06-.88-2-1.53-2.82s-1.46-1.47-2.44-1.95-2.03-.73-3.16-.73-2.27.25-3.26.76c-1,.51-1.82,1.18-2.46,2.01-.64.83-1.15,1.78-1.5,2.82-.36,1.05-.53,2.12-.53,3.22,0,1.53.31,2.97.93,4.31.62,1.34,1.53,2.43,2.73,3.27s2.57,1.27,4.11,1.27Z"/>
        <path class="cls-4" d="M451.18,47.8v-24.28h8.62c1.9,0,3.61.31,5.13.94s2.76,1.5,3.73,2.6c.97,1.11,1.7,2.39,2.21,3.84s.76,3.02.76,4.72c0,3.67-1.08,6.62-3.23,8.84s-5.02,3.33-8.61,3.33h-8.62ZM459.8,26.91h-4.79v17.5h4.79c1.67,0,3.11-.39,4.32-1.16,1.21-.77,2.11-1.82,2.71-3.13.6-1.31.9-2.81.9-4.49,0-2.59-.7-4.7-2.11-6.3-1.41-1.61-3.35-2.41-5.82-2.41Z"/>
        <path class="cls-4" d="M480.96,35.66c0-1.6.3-3.15.89-4.65s1.4-2.81,2.43-3.93c1.02-1.13,2.26-2.03,3.72-2.71,1.46-.68,3.01-1.02,4.64-1.02s3.26.36,4.72,1.07c1.47.71,2.7,1.65,3.68,2.81.98,1.16,1.76,2.48,2.33,3.96.57,1.47.85,2.98.85,4.5,0,1.6-.3,3.15-.89,4.64s-1.4,2.8-2.41,3.92c-1.01,1.13-2.25,2.02-3.71,2.7-1.46.68-3.01,1.01-4.64,1.01-1.36,0-2.65-.23-3.87-.68-1.23-.45-2.3-1.07-3.23-1.86-.93-.79-1.74-1.7-2.42-2.74-.68-1.04-1.2-2.16-1.56-3.37-.36-1.21-.53-2.43-.53-3.66ZM492.62,44.51c1.18,0,2.26-.26,3.26-.77.99-.51,1.8-1.19,2.44-2.03.63-.84,1.13-1.79,1.48-2.83.35-1.05.52-2.12.52-3.22s-.19-2.25-.56-3.32c-.37-1.06-.88-2-1.53-2.82s-1.46-1.47-2.44-1.95-2.03-.73-3.16-.73-2.27.25-3.26.76c-1,.51-1.82,1.18-2.46,2.01-.64.83-1.15,1.78-1.5,2.82-.36,1.05-.53,2.12-.53,3.22,0,1.53.31,2.97.93,4.31.62,1.34,1.53,2.43,2.73,3.27s2.57,1.27,4.11,1.27Z"/>
      </g>
      <g>
        <path class="cls-4" d="M65.77,95.8v-24.09h9.26c1.94,0,3.7.31,5.26.94s2.84,1.48,3.83,2.58c.99,1.1,1.74,2.37,2.27,3.81.52,1.44.79,3,.79,4.68,0,3.65-1.11,6.57-3.32,8.77-2.22,2.2-5.16,3.31-8.82,3.31h-9.26ZM75.03,77.47h-2.65v12.56h2.65c1.69,0,3.02-.59,3.99-1.76.96-1.17,1.45-2.69,1.45-4.56s-.49-3.4-1.46-4.54-2.3-1.71-3.98-1.71Z"/>
        <path class="cls-4" d="M114.01,90.03v5.77h-17.17v-24.09h16.87v5.77h-10.26v3.4h8.77v5.35h-8.77v3.81h10.56Z"/>
        <path class="cls-4" d="M138.48,79.57c-.1-.05-.23-.13-.4-.23s-.5-.28-1.01-.53c-.51-.25-1.01-.48-1.49-.67-.49-.19-1.05-.37-1.7-.53-.65-.16-1.24-.24-1.78-.24-1.29,0-1.94.4-1.94,1.19,0,.18.03.34.09.48.06.14.17.28.32.4.15.12.31.23.46.31.15.09.38.19.69.3.31.11.57.2.8.27.22.07.56.17,1.01.31s.82.25,1.11.34c.97.3,1.8.59,2.48.88.68.29,1.34.64,1.98,1.05.64.41,1.15.87,1.54,1.37.39.5.69,1.09.92,1.8.23.7.34,1.49.34,2.38,0,1.12-.18,2.12-.53,3.02-.36.9-.82,1.63-1.4,2.19-.58.57-1.27,1.04-2.08,1.42s-1.63.64-2.48.8c-.84.15-1.74.23-2.68.23-1.73,0-3.55-.26-5.45-.77-1.9-.51-3.57-1.19-5.02-2.05l2.85-5.8c.11.08.26.17.46.29.19.12.59.32,1.19.63.6.3,1.19.57,1.78.8s1.28.45,2.08.64c.8.19,1.54.29,2.23.29,1.28,0,1.92-.36,1.92-1.06,0-.27-.08-.5-.25-.7-.16-.2-.44-.39-.83-.56-.39-.17-.76-.32-1.12-.43-.36-.12-.87-.27-1.52-.46-.66-.19-1.2-.36-1.63-.51-2.16-.73-3.72-1.6-4.68-2.63-.95-1.02-1.43-2.4-1.43-4.13,0-1.29.25-2.46.74-3.51s1.15-1.91,1.99-2.57c.83-.66,1.79-1.17,2.86-1.52s2.21-.53,3.41-.53c2.58,0,5.58.87,9.03,2.6l-2.85,5.47Z"/>
        <path class="cls-4" d="M168.77,90.03v5.77h-17.17v-24.09h16.87v5.77h-10.26v3.4h8.77v5.35h-8.77v3.81h10.56Z"/>
        <path class="cls-4" d="M185.24,83.95v11.85h-6.61v-24.09h5.15l9.68,12.24v-12.24h6.61v24.09h-5.25l-9.58-11.85Z"/>
        <path class="cls-4" d="M215.66,71.7l4.71,16.45,4.66-16.45h6.96l-8.32,24.09h-6.58l-8.42-24.09h6.99Z"/>
        <path class="cls-4" d="M238.32,83.72c0-1.58.31-3.11.93-4.58.62-1.48,1.46-2.77,2.54-3.89s2.38-2.01,3.92-2.68c1.54-.67,3.18-1,4.93-1s3.43.35,4.97,1.05c1.55.7,2.83,1.63,3.87,2.78,1.03,1.16,1.84,2.47,2.44,3.94.59,1.47.89,2.97.89,4.51s-.31,3.09-.92,4.56c-.61,1.47-1.45,2.77-2.52,3.89s-2.37,2.02-3.92,2.69c-1.55.67-3.19,1.01-4.94,1.01s-3.42-.35-4.96-1.04c-1.54-.7-2.83-1.62-3.87-2.77s-1.86-2.46-2.45-3.94c-.6-1.47-.9-2.99-.9-4.53ZM250.57,90.13c.92,0,1.74-.19,2.46-.56.72-.37,1.3-.86,1.73-1.48.43-.62.76-1.3.98-2.04.22-.74.33-1.52.33-2.34,0-1.13-.2-2.15-.59-3.08s-1.02-1.69-1.87-2.29c-.86-.6-1.88-.9-3.07-.9-.92,0-1.74.18-2.45.55-.72.36-1.29.85-1.72,1.46-.43.61-.76,1.28-.98,2.02s-.33,1.51-.33,2.32.12,1.61.34,2.36c.23.74.56,1.42,1,2.02s1.02,1.08,1.74,1.43c.72.36,1.53.53,2.44.53Z"/>
        <path class="cls-4" d="M272.38,95.8v-24.09h6.61v18.33h10.94v5.77h-17.55Z"/>
        <path class="cls-4" d="M300.89,71.7l4.71,16.45,4.66-16.45h6.96l-8.32,24.09h-6.58l-8.42-24.09h6.99Z"/>
        <path class="cls-4" d="M325.83,95.8v-24.09h6.61v24.09h-6.61Z"/>
        <path class="cls-4" d="M361.59,95.8v-12.69l-4.04,8.93h-3.53l-4.04-8.93v12.69h-6.61v-24.09h7.22l5.19,11.33,5.24-11.33h7.19v24.09h-6.61Z"/>
        <path class="cls-4" d="M396.29,90.03v5.77h-17.17v-24.09h16.87v5.77h-10.26v3.4h8.77v5.35h-8.77v3.81h10.56Z"/>
        <path class="cls-4" d="M412.77,83.95v11.85h-6.61v-24.09h5.15l9.68,12.24v-12.24h6.61v24.09h-5.25l-9.58-11.85Z"/>
        <path class="cls-4" d="M457.28,77.47h-6.91v18.33h-6.63v-18.33h-6.96v-5.77h20.5v5.77Z"/>
        <path class="cls-4" d="M464.77,83.72c0-1.58.31-3.11.93-4.58.62-1.48,1.46-2.77,2.54-3.89s2.38-2.01,3.92-2.68c1.54-.67,3.18-1,4.93-1s3.43.35,4.97,1.05c1.55.7,2.83,1.63,3.87,2.78,1.03,1.16,1.84,2.47,2.44,3.94.59,1.47.89,2.97.89,4.51s-.31,3.09-.92,4.56c-.61,1.47-1.45,2.77-2.52,3.89s-2.37,2.02-3.92,2.69c-1.55.67-3.19,1.01-4.94,1.01s-3.42-.35-4.96-1.04c-1.54-.7-2.83-1.62-3.87-2.77s-1.86-2.46-2.45-3.94c-.6-1.47-.9-2.99-.9-4.53ZM477.01,90.13c.92,0,1.74-.19,2.46-.56.72-.37,1.3-.86,1.73-1.48.43-.62.76-1.3.98-2.04.22-.74.33-1.52.33-2.34,0-1.13-.2-2.15-.59-3.08s-1.02-1.69-1.87-2.29c-.86-.6-1.88-.9-3.07-.9-.92,0-1.74.18-2.45.55-.72.36-1.29.85-1.72,1.46-.43.61-.76,1.28-.98,2.02s-.33,1.51-.33,2.32.12,1.61.34,2.36c.23.74.56,1.42,1,2.02s1.02,1.08,1.74,1.43c.72.36,1.53.53,2.44.53Z"/>
        <path class="cls-4" d="M499.16,101.13l1.23-5.34h-1.94v-6.25h5.34v6.25l-1.84,5.34h-2.78Z"/>
      </g>
      <g>
        <path class="cls-4" d="M0,144.29v-24.28h6.66v24.28H0Z"/>
        <path class="cls-4" d="M24.34,132.35v11.94h-6.66v-24.28h5.19l9.75,12.34v-12.34h6.66v24.28h-5.29l-9.65-11.94Z"/>
        <path class="cls-4" d="M50.3,144.29v-24.28h9.33c1.96,0,3.72.31,5.3.94s2.86,1.5,3.86,2.6c1,1.11,1.76,2.39,2.29,3.84s.79,3.02.79,4.72c0,3.67-1.12,6.62-3.35,8.84-2.23,2.22-5.2,3.33-8.89,3.33h-9.33ZM59.63,125.82h-2.67v12.65h2.67c1.7,0,3.04-.59,4.01-1.77.97-1.18,1.46-2.71,1.46-4.59s-.49-3.43-1.47-4.58-2.32-1.72-4.01-1.72Z"/>
        <path class="cls-4" d="M92.22,144.49c-1.51,0-2.89-.21-4.12-.63-1.23-.42-2.27-1-3.11-1.74-.84-.73-1.55-1.61-2.11-2.64-.57-1.02-.98-2.12-1.24-3.28-.26-1.16-.38-2.4-.38-3.72v-12.47h6.68v12.47c0,.84.08,1.61.24,2.32.16.71.41,1.36.74,1.93.33.58.77,1.03,1.34,1.35.56.33,1.22.49,1.96.49s1.42-.17,1.99-.5c.57-.34,1.02-.79,1.34-1.38.33-.58.57-1.23.73-1.94.16-.71.24-1.47.24-2.28v-12.47h6.66v12.47c0,1.73-.22,3.31-.67,4.74s-1.11,2.7-1.98,3.79c-.87,1.09-2.02,1.94-3.44,2.55-1.42.61-3.05.92-4.88.92ZM94.27,118.98l-4.11-1.09,1.7-4.86h5.78l-3.37,5.94Z"/>
        <path class="cls-4" d="M128.56,127.94c-.1-.06-.23-.13-.4-.24-.17-.1-.51-.28-1.02-.53-.51-.26-1.01-.48-1.5-.68-.49-.19-1.06-.37-1.71-.53-.65-.16-1.25-.24-1.8-.24-1.3,0-1.95.4-1.95,1.2,0,.18.03.34.09.48.06.14.17.28.32.4.16.12.31.23.46.32.15.09.38.19.69.3.31.11.58.2.8.27.22.07.56.17,1.02.31.46.14.83.25,1.12.34.98.3,1.81.6,2.5.89s1.35.64,2,1.06c.64.42,1.16.88,1.55,1.38s.7,1.11.93,1.81c.23.71.34,1.51.34,2.4,0,1.12-.18,2.14-.53,3.04-.36.9-.83,1.64-1.41,2.21-.59.57-1.28,1.05-2.1,1.43-.81.38-1.64.64-2.49.8s-1.75.23-2.7.23c-1.75,0-3.58-.26-5.49-.78s-3.6-1.2-5.06-2.06l2.87-5.85c.11.08.26.18.46.29.2.12.6.33,1.2.63.61.3,1.2.58,1.8.81.59.24,1.29.45,2.1.64.81.2,1.56.29,2.25.29,1.29,0,1.94-.36,1.94-1.07,0-.27-.08-.5-.25-.71-.17-.21-.45-.4-.83-.57-.39-.17-.76-.32-1.13-.43-.36-.12-.87-.27-1.53-.47s-1.21-.36-1.64-.51c-2.18-.73-3.76-1.62-4.72-2.65-.96-1.03-1.45-2.42-1.45-4.16,0-1.3.25-2.48.74-3.54.49-1.06,1.16-1.92,2-2.59.84-.67,1.8-1.18,2.88-1.53s2.23-.53,3.44-.53c2.59,0,5.63.87,9.1,2.62l-2.87,5.51Z"/>
        <path class="cls-4" d="M160.68,125.82h-6.96v18.47h-6.68v-18.47h-7.01v-5.81h20.65v5.81Z"/>
        <path class="cls-4" d="M169.94,144.29v-24.28h11.15c1.15,0,2.24.25,3.27.73,1.03.49,1.9,1.13,2.6,1.92s1.26,1.69,1.67,2.7c.41,1.01.62,2.03.62,3.06,0,1.4-.31,2.72-.93,3.94-.62,1.22-1.47,2.22-2.56,2.99l5.13,8.93h-7.31l-4.27-7.45h-2.71v7.45h-6.66ZM176.6,131.02h4.21c.43,0,.82-.24,1.17-.71s.52-1.1.52-1.88-.19-1.41-.58-1.89c-.39-.48-.81-.72-1.27-.72h-4.04v5.19Z"/>
        <path class="cls-4" d="M199.85,144.29v-24.28h6.66v24.28h-6.66Z"/>
        <path class="cls-4" d="M223.14,120.01h7.45l7.73,24.28h-6.76l-1.47-4.76h-6.48l-1.44,4.76h-6.8l7.76-24.28ZM229.02,135.09l-2.15-8.55-2.26,8.55h4.41Z"/>
        <path class="cls-4" d="M247.51,149.67l1.24-5.38h-1.95v-6.3h5.38v6.3l-1.85,5.38h-2.81Z"/>
        <path class="cls-4" d="M288.39,119.88c2.28,0,4.29.48,6.04,1.44,1.75.96,3.05,2.24,3.91,3.86l-5.09,3.62c-.22-.57-.52-1.06-.9-1.46-.38-.41-.8-.72-1.27-.94-.47-.22-.93-.37-1.39-.47-.46-.09-.94-.14-1.43-.14-.91,0-1.73.19-2.45.56-.72.37-1.3.87-1.73,1.49-.43.62-.75,1.29-.98,2.03-.22.74-.33,1.5-.33,2.29,0,1.77.51,3.28,1.52,4.54s2.36,1.89,4.04,1.89c.66,0,1.29-.09,1.89-.28s1.18-.51,1.73-.97c.55-.46.95-1.04,1.21-1.73l5.44,3.24c-.46,1.15-1.26,2.16-2.4,3.04s-2.41,1.53-3.8,1.96c-1.39.43-2.79.64-4.21.64-1.74,0-3.37-.36-4.92-1.08s-2.84-1.67-3.89-2.85-1.88-2.51-2.49-4.02c-.61-1.51-.91-3.04-.91-4.58s.29-2.95.86-4.38,1.37-2.72,2.4-3.87c1.03-1.15,2.34-2.07,3.93-2.77s3.33-1.05,5.21-1.05Z"/>
        <path class="cls-4" d="M306.06,132.12c0-1.59.31-3.13.93-4.62.62-1.49,1.48-2.79,2.56-3.92,1.08-1.12,2.4-2.02,3.95-2.7s3.21-1.01,4.97-1.01,3.45.35,5.01,1.06c1.56.71,2.86,1.64,3.9,2.8s1.86,2.49,2.45,3.96c.6,1.48.9,3,.9,4.54s-.31,3.11-.93,4.59c-.62,1.48-1.46,2.79-2.54,3.91-1.07,1.13-2.39,2.04-3.95,2.71-1.56.68-3.22,1.02-4.98,1.02s-3.45-.35-5-1.05-2.85-1.63-3.9-2.79c-1.05-1.16-1.87-2.48-2.47-3.96s-.9-3.01-.9-4.57ZM318.4,138.58c.93,0,1.75-.19,2.48-.56s1.31-.87,1.74-1.49.76-1.31.98-2.05.33-1.53.33-2.35c0-1.14-.2-2.17-.59-3.11-.4-.94-1.03-1.71-1.89-2.32-.86-.61-1.9-.91-3.1-.91-.92,0-1.75.18-2.47.55-.72.37-1.3.86-1.74,1.47-.43.61-.76,1.29-.98,2.04-.22.74-.33,1.52-.33,2.34s.11,1.63.34,2.38c.23.75.56,1.43,1.01,2.04.45.61,1.03,1.09,1.75,1.45s1.54.53,2.45.53Z"/>
        <path class="cls-4" d="M358.75,144.29v-12.79l-4.07,9h-3.56l-4.07-9v12.79h-6.66v-24.28h7.28l5.23,11.42,5.27-11.42h7.25v24.28h-6.66Z"/>
        <path class="cls-4" d="M393.71,138.48v5.81h-17.3v-24.28h17v5.81h-10.34v3.42h8.83v5.39h-8.83v3.84h10.64ZM387.18,118.98l-4.11-1.09,1.72-4.86h5.78l-3.39,5.94Z"/>
        <path class="cls-4" d="M403.66,144.29v-24.28h11.15c1.15,0,2.24.25,3.27.73,1.03.49,1.9,1.13,2.6,1.92s1.26,1.69,1.67,2.7c.41,1.01.62,2.03.62,3.06,0,1.4-.31,2.72-.93,3.94-.62,1.22-1.47,2.22-2.56,2.99l5.13,8.93h-7.31l-4.27-7.45h-2.71v7.45h-6.66ZM410.32,131.02h4.21c.43,0,.82-.24,1.17-.71s.52-1.1.52-1.88-.19-1.41-.58-1.89c-.39-.48-.81-.72-1.27-.72h-4.04v5.19Z"/>
        <path class="cls-4" d="M444.34,119.88c2.28,0,4.29.48,6.04,1.44,1.75.96,3.05,2.24,3.91,3.86l-5.09,3.62c-.22-.57-.52-1.06-.9-1.46-.38-.41-.8-.72-1.27-.94-.47-.22-.93-.37-1.39-.47-.46-.09-.94-.14-1.43-.14-.91,0-1.73.19-2.45.56-.72.37-1.3.87-1.73,1.49-.43.62-.75,1.29-.98,2.03-.22.74-.33,1.5-.33,2.29,0,1.77.51,3.28,1.52,4.54s2.36,1.89,4.04,1.89c.66,0,1.29-.09,1.89-.28s1.18-.51,1.73-.97c.55-.46.95-1.04,1.21-1.73l5.44,3.24c-.46,1.15-1.26,2.16-2.4,3.04s-2.41,1.53-3.8,1.96c-1.39.43-2.79.64-4.21.64-1.74,0-3.37-.36-4.92-1.08s-2.84-1.67-3.89-2.85-1.88-2.51-2.49-4.02c-.61-1.51-.91-3.04-.91-4.58s.29-2.95.86-4.38,1.37-2.72,2.4-3.87c1.03-1.15,2.34-2.07,3.93-2.77s3.33-1.05,5.21-1.05Z"/>
        <path class="cls-4" d="M463.73,144.29v-24.28h6.66v24.28h-6.66Z"/>
        <path class="cls-4" d="M480.08,132.12c0-1.59.31-3.13.93-4.62.62-1.49,1.48-2.79,2.56-3.92,1.08-1.12,2.4-2.02,3.95-2.7s3.21-1.01,4.97-1.01,3.45.35,5.01,1.06c1.56.71,2.86,1.64,3.9,2.8s1.86,2.49,2.45,3.96c.6,1.48.9,3,.9,4.54s-.31,3.11-.93,4.59c-.62,1.48-1.46,2.79-2.54,3.91-1.07,1.13-2.39,2.04-3.95,2.71-1.56.68-3.22,1.02-4.98,1.02s-3.45-.35-5-1.05-2.85-1.63-3.9-2.79c-1.05-1.16-1.87-2.48-2.47-3.96s-.9-3.01-.9-4.57ZM492.41,138.58c.93,0,1.75-.19,2.48-.56s1.31-.87,1.74-1.49.76-1.31.98-2.05.33-1.53.33-2.35c0-1.14-.2-2.17-.59-3.11-.4-.94-1.03-1.71-1.89-2.32-.86-.61-1.9-.91-3.1-.91-.92,0-1.75.18-2.47.55-.72.37-1.3.86-1.74,1.47-.43.61-.76,1.29-.98,2.04-.22.74-.33,1.52-.33,2.34s.11,1.63.34,2.38c.23.75.56,1.43,1.01,2.04.45.61,1.03,1.09,1.75,1.45s1.54.53,2.45.53Z"/>
      </g>
      <g>
        <g>
          <path d="M636.82,214.88c-1.11,0-2.11-.17-3-.49-.89-.33-1.62-.77-2.21-1.32-.59-.55-1.07-1.22-1.46-2-.39-.78-.67-1.6-.83-2.45-.17-.85-.25-1.76-.25-2.73v-9.12h2.85v9.12c0,.68.05,1.33.15,1.94.1.61.27,1.19.51,1.75.24.56.55,1.04.91,1.44.36.4.83.71,1.4.95.57.24,1.22.36,1.94.36s1.39-.12,1.96-.36c.57-.24,1.04-.57,1.4-.97.36-.4.66-.89.9-1.45.24-.56.41-1.14.5-1.74.1-.6.14-1.24.14-1.91v-9.12h2.87v9.12c0,1.26-.15,2.42-.45,3.48-.3,1.06-.75,2.01-1.35,2.85-.61.84-1.42,1.49-2.44,1.96-1.02.47-2.2.71-3.54.71Z"/>
          <path d="M656.28,202.04v12.72h-2.83v-17.99h2.33l10.19,13v-12.98h2.86v17.96h-2.49l-10.06-12.72Z"/>
          <path d="M677.94,214.76v-17.99h2.83v17.99h-2.83Z"/>
          <path d="M695.09,196.77h2.68l6.99,17.99h-2.99l-1.89-4.89h-6.94l-1.88,4.89h-3.02l7.05-17.99ZM694.76,193.41c-.26,0-.49.06-.67.17-.18.11-.31.25-.38.41-.07.16-.12.29-.15.4-.02.1-.04.18-.04.24h-1.57c0-.12.02-.29.07-.51.05-.21.14-.46.28-.75.14-.28.3-.55.49-.79.19-.24.45-.45.78-.62.33-.17.69-.25,1.08-.25.42,0,.82.09,1.2.28.38.19.74.37,1.09.56.35.19.69.28,1.03.28.23,0,.44-.04.61-.12.18-.08.31-.18.41-.28.1-.11.17-.22.23-.35.06-.13.09-.23.11-.3s.02-.13.02-.17h1.6c0,.11-.03.26-.08.47-.05.21-.15.45-.3.74-.14.29-.32.56-.53.8-.21.25-.48.46-.83.64-.35.18-.74.27-1.16.27s-.85-.09-1.25-.27c-.4-.18-.76-.36-1.1-.54-.33-.18-.65-.27-.95-.27ZM699.32,207.77l-2.89-7.88-2.98,7.88h5.88Z"/>
          <path d="M710.24,205.76c0-1.19.22-2.34.66-3.45.44-1.11,1.04-2.08,1.8-2.91.76-.83,1.68-1.5,2.76-2,1.08-.5,2.23-.75,3.44-.75s2.41.26,3.5.79c1.09.53,2,1.22,2.73,2.08.73.86,1.31,1.84,1.73,2.93.42,1.09.63,2.2.63,3.33,0,1.19-.22,2.33-.66,3.44-.44,1.11-1.04,2.07-1.79,2.91-.75.83-1.67,1.5-2.75,2s-2.23.75-3.44.75c-1.01,0-1.96-.17-2.87-.5-.91-.33-1.71-.79-2.39-1.38-.69-.59-1.29-1.26-1.79-2.03-.51-.77-.89-1.6-1.16-2.49-.26-.89-.4-1.8-.4-2.72ZM718.88,212.32c.87,0,1.68-.19,2.41-.57.73-.38,1.34-.88,1.81-1.5.47-.62.84-1.32,1.1-2.1.26-.78.39-1.57.39-2.39s-.14-1.67-.41-2.46c-.28-.79-.66-1.48-1.14-2.09-.48-.61-1.08-1.09-1.81-1.45-.72-.36-1.5-.54-2.34-.54s-1.68.19-2.42.56c-.74.38-1.35.87-1.82,1.49-.48.62-.85,1.32-1.11,2.09-.26.78-.4,1.57-.4,2.39,0,1.14.23,2.2.69,3.19.46.99,1.13,1.8,2.02,2.42.89.63,1.91.94,3.04.94Z"/>
          <path d="M759.12,212.25v2.51h-12.33v-17.99h12.11v2.51h-9.28v5.11h8.03v2.36h-8.03v5.49h9.5Z"/>
          <path d="M778.41,214.76v-17.99h7.83c.78,0,1.53.17,2.23.51.71.34,1.3.78,1.78,1.34.48.55.86,1.18,1.14,1.88.28.7.42,1.41.42,2.13,0,1.22-.32,2.32-.96,3.31-.64.99-1.49,1.65-2.55,1.99l4.23,6.84h-3.19l-3.91-6.26h-4.18v6.26h-2.83ZM781.25,205.99h4.97c.78,0,1.43-.33,1.94-.98.51-.66.77-1.45.77-2.38s-.29-1.7-.87-2.36c-.58-.66-1.25-.98-2-.98h-4.81v6.71Z"/>
          <path d="M812.56,212.25v2.51h-12.34v-17.99h12.11v2.51h-9.28v5.11h8.03v2.36h-8.03v5.49h9.5Z"/>
          <path d="M827.77,196.67c1.58,0,2.96.36,4.15,1.07,1.19.71,2.09,1.66,2.69,2.85l-2.23,1.5c-.24-.52-.54-.97-.9-1.35s-.76-.68-1.19-.89c-.43-.21-.86-.36-1.29-.46-.43-.1-.88-.15-1.33-.15-.73,0-1.4.13-2.03.38-.63.25-1.16.59-1.61,1.01-.45.42-.83.91-1.15,1.47-.32.56-.56,1.15-.71,1.77-.15.62-.23,1.25-.23,1.88,0,1.16.25,2.25.74,3.25.49,1.01,1.19,1.82,2.08,2.43.9.61,1.89.92,2.98.92.62,0,1.22-.1,1.81-.29.59-.19,1.16-.52,1.71-.98.55-.46.97-1.02,1.27-1.69l2.36,1.34c-.36.86-.93,1.61-1.73,2.26-.8.65-1.68,1.13-2.64,1.45-.96.31-1.92.47-2.88.47-1.22,0-2.37-.27-3.46-.8-1.08-.54-2-1.24-2.73-2.12-.74-.87-1.32-1.87-1.75-2.98-.43-1.11-.64-2.23-.64-3.37,0-.87.12-1.74.37-2.6.25-.86.62-1.67,1.12-2.44.5-.76,1.09-1.44,1.78-2.02.68-.59,1.5-1.05,2.44-1.39.94-.34,1.94-.51,3.01-.51Z"/>
          <path d="M841.22,205.76c0-1.19.22-2.34.66-3.45.44-1.11,1.04-2.08,1.8-2.91.76-.83,1.68-1.5,2.76-2,1.08-.5,2.23-.75,3.44-.75s2.41.26,3.5.79c1.09.53,2,1.22,2.73,2.08.73.86,1.31,1.84,1.73,2.93.42,1.09.63,2.2.63,3.33,0,1.19-.22,2.33-.66,3.44-.44,1.11-1.04,2.07-1.79,2.91-.75.83-1.67,1.5-2.75,2-1.08.5-2.23.75-3.44.75-1.01,0-1.96-.17-2.87-.5s-1.71-.79-2.39-1.38c-.69-.59-1.29-1.26-1.79-2.03-.51-.77-.89-1.6-1.16-2.49-.26-.89-.4-1.8-.4-2.72ZM849.86,212.32c.87,0,1.68-.19,2.41-.57.73-.38,1.34-.88,1.81-1.5.47-.62.84-1.32,1.1-2.1.26-.78.39-1.57.39-2.39s-.14-1.67-.41-2.46c-.28-.79-.66-1.48-1.14-2.09-.48-.61-1.08-1.09-1.81-1.45-.72-.36-1.5-.54-2.34-.54s-1.68.19-2.42.56c-.74.38-1.35.87-1.82,1.49-.48.62-.85,1.32-1.11,2.09-.26.78-.4,1.57-.4,2.39,0,1.14.23,2.2.69,3.19.46.99,1.13,1.8,2.02,2.42.89.63,1.91.94,3.04.94Z"/>
          <path d="M869.32,202.04v12.72h-2.83v-17.99h2.33l10.19,13v-12.98h2.86v17.96h-2.49l-10.06-12.72Z"/>
          <path d="M901.61,201c-.39-.43-1.05-.84-1.98-1.24-.93-.4-1.89-.59-2.88-.59-1.17,0-2.05.22-2.63.65-.58.43-.87,1.05-.87,1.84,0,.25.03.47.1.67.07.2.15.37.25.53.1.15.26.3.46.44s.41.26.61.36c.2.1.48.2.83.32.35.11.68.21.98.28.3.08.7.18,1.2.3.79.19,1.47.38,2.03.56.56.19,1.1.42,1.62.71.52.28.94.6,1.25.95.31.35.56.78.75,1.28.19.5.28,1.08.28,1.72,0,.72-.11,1.37-.34,1.94-.23.58-.54,1.06-.93,1.46-.4.4-.87.73-1.44,1-.56.27-1.16.46-1.81.58-.64.12-1.34.18-2.08.18-1.37,0-2.69-.21-3.97-.62-1.28-.42-2.43-1.02-3.45-1.8l1.3-2.44c.52.54,1.37,1.05,2.54,1.55,1.18.5,2.39.75,3.63.75,1.12,0,1.99-.2,2.59-.59.61-.4.91-.97.91-1.71,0-.3-.05-.57-.14-.8-.09-.24-.25-.46-.47-.65s-.45-.36-.69-.5c-.24-.14-.57-.28-1-.43s-.83-.27-1.19-.37c-.36-.1-.84-.23-1.45-.38-.95-.25-1.73-.5-2.35-.75-.62-.26-1.17-.57-1.64-.94-.47-.37-.82-.81-1.03-1.32-.21-.51-.32-1.11-.32-1.8,0-.87.17-1.65.5-2.34.33-.7.79-1.27,1.38-1.73s1.27-.8,2.07-1.04c.79-.24,1.65-.36,2.59-.36,2.21,0,4.24.68,6.07,2.03l-1.29,2.33Z"/>
          <path d="M924.72,199.28h-5.98v15.48h-2.87v-15.48h-6v-2.51h14.85v2.51Z"/>
          <path d="M932.19,214.76v-17.99h7.83c.78,0,1.53.17,2.23.51.71.34,1.3.78,1.78,1.34.48.55.86,1.18,1.14,1.88.28.7.42,1.41.42,2.13,0,1.22-.32,2.32-.96,3.31-.64.99-1.49,1.65-2.55,1.99l4.23,6.84h-3.19l-3.91-6.26h-4.18v6.26h-2.83ZM935.02,205.99h4.97c.78,0,1.43-.33,1.94-.98.51-.66.77-1.45.77-2.38s-.29-1.7-.87-2.36c-.58-.66-1.25-.98-2-.98h-4.81v6.71Z"/>
          <path d="M961.47,214.88c-1.11,0-2.11-.17-3-.49-.89-.33-1.62-.77-2.21-1.32-.59-.55-1.07-1.22-1.46-2-.39-.78-.67-1.6-.83-2.45-.17-.85-.25-1.76-.25-2.73v-9.12h2.85v9.12c0,.68.05,1.33.15,1.94.1.61.27,1.19.51,1.75.24.56.55,1.04.91,1.44.36.4.83.71,1.4.95.57.24,1.22.36,1.94.36s1.39-.12,1.96-.36c.57-.24,1.04-.57,1.4-.97s.66-.89.9-1.45c.24-.56.41-1.14.5-1.74s.14-1.24.14-1.91v-9.12h2.87v9.12c0,1.26-.15,2.42-.45,3.48-.3,1.06-.75,2.01-1.35,2.85-.61.84-1.42,1.49-2.44,1.96-1.02.47-2.2.71-3.54.71Z"/>
          <path d="M992.79,210.73c-.46,1.11-1.26,2.02-2.39,2.74-1.13.72-2.36,1.18-3.7,1.37.87.73,1.3,1.54,1.3,2.44,0,.73-.24,1.3-.73,1.73-.49.43-1.17.64-2.04.64-1.04,0-2.03-.24-2.98-.73l.71-1.5c.64.35,1.24.53,1.79.53.48,0,.85-.1,1.12-.3.27-.2.4-.5.4-.88,0-.66-.45-1.29-1.36-1.88-1.15-.09-2.22-.42-3.22-.99-1-.57-1.85-1.28-2.53-2.14-.69-.86-1.22-1.82-1.61-2.88-.39-1.06-.59-2.14-.59-3.23,0-.87.12-1.74.37-2.6.25-.86.62-1.67,1.12-2.44.5-.76,1.09-1.44,1.78-2.02.68-.59,1.5-1.05,2.44-1.39.94-.34,1.94-.51,3.01-.51,1.58,0,2.96.36,4.15,1.07s2.09,1.66,2.69,2.85l-2.23,1.5c-.24-.52-.54-.97-.9-1.35-.36-.38-.76-.68-1.19-.89-.43-.21-.86-.36-1.29-.46-.43-.1-.88-.15-1.33-.15-.73,0-1.4.13-2.03.38-.63.25-1.16.59-1.61,1.01-.45.42-.83.91-1.15,1.47-.32.56-.56,1.15-.71,1.77-.15.62-.23,1.25-.23,1.88,0,1.16.25,2.25.74,3.25.49,1.01,1.19,1.82,2.08,2.43.9.61,1.89.92,2.98.92.62,0,1.22-.1,1.81-.29.59-.19,1.16-.52,1.71-.98.55-.46.97-1.02,1.27-1.69l2.36,1.34Z"/>
          <path d="M1005.42,196.77h2.68l6.99,17.99h-2.99l-1.89-4.89h-6.94l-1.88,4.89h-3.02l7.05-17.99ZM1005.09,193.41c-.26,0-.49.06-.67.17-.18.11-.31.25-.38.41-.07.16-.12.29-.15.4-.02.1-.04.18-.04.24h-1.57c0-.12.02-.29.07-.51.05-.21.14-.46.28-.75.14-.28.3-.55.49-.79.19-.24.45-.45.78-.62.33-.17.69-.25,1.08-.25.42,0,.82.09,1.2.28.38.19.74.37,1.09.56.35.19.69.28,1.03.28.23,0,.44-.04.61-.12.18-.08.31-.18.41-.28.1-.11.17-.22.23-.35.06-.13.09-.23.11-.3s.02-.13.02-.17h1.6c0,.11-.03.26-.08.47-.05.21-.15.45-.3.74-.14.29-.32.56-.53.8-.21.25-.48.46-.83.64-.35.18-.74.27-1.16.27s-.85-.09-1.25-.27-.76-.36-1.1-.54c-.33-.18-.65-.27-.95-.27ZM1009.65,207.77l-2.89-7.88-2.98,7.88h5.88Z"/>
          <path d="M1020.57,205.76c0-1.19.22-2.34.66-3.45.44-1.11,1.04-2.08,1.8-2.91.76-.83,1.68-1.5,2.76-2,1.08-.5,2.23-.75,3.44-.75s2.41.26,3.5.79c1.09.53,2,1.22,2.73,2.08.73.86,1.31,1.84,1.73,2.93.42,1.09.63,2.2.63,3.33,0,1.19-.22,2.33-.66,3.44-.44,1.11-1.04,2.07-1.79,2.91-.75.83-1.67,1.5-2.75,2-1.08.5-2.23.75-3.44.75-1.01,0-1.96-.17-2.87-.5-.91-.33-1.71-.79-2.39-1.38-.69-.59-1.29-1.26-1.79-2.03-.51-.77-.89-1.6-1.16-2.49-.26-.89-.4-1.8-.4-2.72ZM1029.2,212.32c.87,0,1.68-.19,2.41-.57.73-.38,1.34-.88,1.81-1.5.47-.62.83-1.32,1.1-2.1.26-.78.39-1.57.39-2.39s-.14-1.67-.41-2.46c-.28-.79-.66-1.48-1.14-2.09-.48-.61-1.08-1.09-1.81-1.45-.72-.36-1.5-.54-2.34-.54s-1.68.19-2.42.56-1.35.87-1.82,1.49c-.48.62-.85,1.32-1.11,2.09-.26.78-.4,1.57-.4,2.39,0,1.14.23,2.2.69,3.19.46.99,1.13,1.8,2.02,2.42.89.63,1.9.94,3.04.94Z"/>
        </g>
        <polygon class="cls-3" points="725.35 121.14 678 121.14 678 168.92 756.42 168.92 725.35 121.14"/>
        <g>
          <path class="cls-2" d="M624.23,168.92h17.65c19.95,0,36.12-16.17,36.12-36.12s-16.17-36.12-36.12-36.12h-55.43v72.24h37.78Z"/>
          <path class="cls-6" d="M586.45,96.68h51.38c13.37,0,24.2-10.84,24.2-24.2s-10.84-24.2-24.2-24.2h-51.38v48.41Z"/>
          <polygon class="cls-5" points="805.33 48.27 733.58 168.92 877.09 168.92 805.33 48.27"/>
          <rect class="cls-5" x="996.57" y="48.27" width="41.72" height="80.12"/>
          <rect class="cls-6" x="1038.28" y="128.4" width="41.72" height="40.52"/>
          <rect class="cls-1" x="996.57" y="128.4" width="41.72" height="40.52"/>
          <rect class="cls-2" x="856.21" y="101.89" width="39.44" height="67.03"/>
          <polygon class="cls-1" points="733.58 168.92 756.42 168.92 744.49 150.57 733.58 168.92"/>
          <polygon class="cls-1" points="856.21 133.81 856.21 168.92 877.09 168.92 856.21 133.81"/>
          <rect class="cls-3" x="947.81" y="48.27" width="41.72" height="120.65"/>
          <rect class="cls-3" x="586.45" y="48.27" width="41.72" height="48.41"/>
          <path class="cls-6" d="M712.72,121.14h12.62c20.12,0,36.43-16.31,36.43-36.43s-16.31-36.43-36.43-36.43h-47.34v72.87h34.72Z"/>
          <rect class="cls-6" x="895.64" y="48.27" width="45.13" height="43.87"/>
          <path class="cls-5" d="M909.43,92.14h-13.78v76.78h13.78c21.2,0,38.39-17.19,38.39-38.39s-17.19-38.39-38.39-38.39"/>
          <path class="cls-3" d="M883.02,48.27c-14.81,0-26.81,12-26.81,26.81s12,26.81,26.81,26.81h12.63v-53.62h-12.63Z"/>
          <rect class="cls-5" x="586.45" y="96.68" width="41.72" height="72.24"/>
          <polygon class="cls-5" points="725.35 121.14 678 48.27 678 121.14 725.35 121.14"/>
          <path class="cls-6" d="M849.35,168.92c0-24.31-19.71-44.01-44.01-44.01s-44.01,19.71-44.01,44.01h88.03Z"/>
          <path d="M651.85,10.41v1.79c0,7.14-4.78,11.79-11.12,11.79-6.74,0-12.03-5.26-12.03-11.96S634.03,0,640.7,0c4.21,0,8.09,2.16,10.21,5.69l-5.26,3.13c-1.01-1.82-2.86-2.86-5.02-2.86-3.37,0-5.76,2.59-5.76,6.1s2.39,5.93,5.86,5.93c2.43,0,3.97-1.21,4.51-2.7h-6.16v-4.88h12.77Z"/>
          <path d="M660.34,11.99c0-6.67,5.32-11.99,12.03-11.99s11.96,5.32,11.96,11.99-5.32,11.99-11.96,11.99-12.03-5.32-12.03-11.99M677.69,11.99c0-3.23-2.32-5.66-5.32-5.66s-5.42,2.43-5.42,5.66,2.36,5.66,5.42,5.66,5.32-2.43,5.32-5.66"/>
          <polygon points="714.13 .54 705.17 23.45 699.01 23.45 690.15 .54 696.78 .54 702.11 14.65 707.5 .54 714.13 .54"/>
          <polygon points="728.38 6.13 728.38 9.53 735.12 9.53 735.12 14.45 728.38 14.45 728.38 17.85 738.59 17.85 738.59 23.45 722.18 23.45 722.18 .54 738.59 .54 738.59 6.13 728.38 6.13"/>
          <path d="M756.81,15.53h-2.59v7.92h-6.1V.54h11.08c4.48,0,7.92,3.2,7.92,7.45,0,2.93-1.58,5.36-4.01,6.64l5.09,8.83h-6.84l-4.55-7.92ZM754.22,10.31h4.31c1.45,0,2.36-1.01,2.36-2.12s-.88-2.16-2.36-2.16h-4.31v4.28Z"/>
          <polygon points="797.23 .54 797.23 23.45 792.01 23.45 782.78 11.39 782.78 23.45 776.68 23.45 776.68 .54 781.87 .54 791.14 12.63 791.14 .54 797.23 .54"/>
          <path d="M806.12,11.99c0-6.67,5.32-11.99,12.03-11.99s11.96,5.32,11.96,11.99-5.32,11.99-11.96,11.99-12.03-5.32-12.03-11.99M823.47,11.99c0-3.23-2.32-5.66-5.32-5.66s-5.42,2.43-5.42,5.66,2.36,5.66,5.42,5.66,5.32-2.43,5.32-5.66"/>
          <polygon points="860.36 6.03 860.36 9.9 867.1 9.9 867.1 15.09 860.36 15.09 860.36 23.45 854.16 23.45 854.16 .54 870.57 .54 870.57 6.03 860.36 6.03"/>
          <polygon points="886.03 6.13 886.03 9.53 892.76 9.53 892.76 14.45 886.03 14.45 886.03 17.85 896.23 17.85 896.23 23.45 879.83 23.45 879.83 .54 896.23 .54 896.23 6.13 886.03 6.13"/>
          <path d="M927.33,11.99c0,6.57-5.26,11.45-12.23,11.45h-9.33V.54h9.33c6.97,0,12.23,4.89,12.23,11.45M920.93,11.99c0-3.34-2.49-5.49-6.13-5.49h-2.8v10.98h2.8c3.64,0,6.13-2.16,6.13-5.49"/>
          <polygon points="942.42 6.13 942.42 9.53 949.15 9.53 949.15 14.45 942.42 14.45 942.42 17.85 952.62 17.85 952.62 23.45 936.22 23.45 936.22 .54 952.62 .54 952.62 6.13 942.42 6.13"/>
          <path d="M970.85,15.53h-2.59v7.92h-6.1V.54h11.08c4.48,0,7.92,3.2,7.92,7.45,0,2.93-1.58,5.36-4.01,6.64l5.09,8.83h-6.84l-4.55-7.92ZM968.25,10.31h4.31c1.45,0,2.36-1.01,2.36-2.12s-.88-2.16-2.36-2.16h-4.31v4.28Z"/>
          <path d="M1006.08,19.51h-9.06l-1.58,3.94h-6.43l9.57-22.91h5.86l9.67,22.91h-6.4l-1.62-3.94ZM1003.82,14.05l-2.29-5.63-2.29,5.63h4.58Z"/>
          <polygon points="1038.28 17.55 1038.28 23.45 1022.15 23.45 1022.15 .54 1028.65 .54 1028.65 17.55 1038.28 17.55"/>
          <path d="M651.85,10.41v1.79c0,7.14-4.78,11.79-11.12,11.79-6.74,0-12.03-5.26-12.03-11.96S634.03,0,640.7,0c4.21,0,8.09,2.16,10.21,5.69l-5.26,3.13c-1.01-1.82-2.86-2.86-5.02-2.86-3.37,0-5.76,2.59-5.76,6.1s2.39,5.93,5.86,5.93c2.43,0,3.97-1.21,4.51-2.7h-6.16v-4.88h12.77Z"/>
          <path d="M660.34,11.99c0-6.67,5.32-11.99,12.03-11.99s11.96,5.32,11.96,11.99-5.32,11.99-11.96,11.99-12.03-5.32-12.03-11.99M677.69,11.99c0-3.23-2.32-5.66-5.32-5.66s-5.42,2.43-5.42,5.66,2.36,5.66,5.42,5.66,5.32-2.43,5.32-5.66"/>
          <polygon points="714.13 .54 705.17 23.45 699.01 23.45 690.15 .54 696.78 .54 702.11 14.65 707.5 .54 714.13 .54"/>
          <polygon points="728.38 6.13 728.38 9.53 735.12 9.53 735.12 14.45 728.38 14.45 728.38 17.85 738.59 17.85 738.59 23.45 722.18 23.45 722.18 .54 738.59 .54 738.59 6.13 728.38 6.13"/>
          <path d="M756.81,15.53h-2.59v7.92h-6.1V.54h11.08c4.48,0,7.92,3.2,7.92,7.45,0,2.93-1.58,5.36-4.01,6.64l5.09,8.83h-6.84l-4.55-7.92ZM754.22,10.31h4.31c1.45,0,2.36-1.01,2.36-2.12s-.88-2.16-2.36-2.16h-4.31v4.28Z"/>
          <polygon points="797.23 .54 797.23 23.45 792.01 23.45 782.78 11.39 782.78 23.45 776.68 23.45 776.68 .54 781.87 .54 791.14 12.63 791.14 .54 797.23 .54"/>
          <path d="M806.12,11.99c0-6.67,5.32-11.99,12.03-11.99s11.96,5.32,11.96,11.99-5.32,11.99-11.96,11.99-12.03-5.32-12.03-11.99M823.47,11.99c0-3.23-2.32-5.66-5.32-5.66s-5.42,2.43-5.42,5.66,2.36,5.66,5.42,5.66,5.32-2.43,5.32-5.66"/>
          <polygon points="860.36 6.03 860.36 9.9 867.1 9.9 867.1 15.09 860.36 15.09 860.36 23.45 854.16 23.45 854.16 .54 870.57 .54 870.57 6.03 860.36 6.03"/>
          <polygon points="886.03 6.13 886.03 9.53 892.76 9.53 892.76 14.45 886.03 14.45 886.03 17.85 896.23 17.85 896.23 23.45 879.83 23.45 879.83 .54 896.23 .54 896.23 6.13 886.03 6.13"/>
          <path d="M927.33,11.99c0,6.57-5.26,11.45-12.23,11.45h-9.33V.54h9.33c6.97,0,12.23,4.89,12.23,11.45M920.93,11.99c0-3.34-2.49-5.49-6.13-5.49h-2.8v10.98h2.8c3.64,0,6.13-2.16,6.13-5.49"/>
          <polygon points="942.42 6.13 942.42 9.53 949.15 9.53 949.15 14.45 942.42 14.45 942.42 17.85 952.62 17.85 952.62 23.45 936.22 23.45 936.22 .54 952.62 .54 952.62 6.13 942.42 6.13"/>
          <path d="M970.85,15.53h-2.59v7.92h-6.1V.54h11.08c4.48,0,7.92,3.2,7.92,7.45,0,2.93-1.58,5.36-4.01,6.64l5.09,8.83h-6.84l-4.55-7.92ZM968.25,10.31h4.31c1.45,0,2.36-1.01,2.36-2.12s-.88-2.16-2.36-2.16h-4.31v4.28Z"/>
          <path d="M1006.08,19.51h-9.06l-1.58,3.94h-6.43l9.57-22.91h5.86l9.67,22.91h-6.4l-1.62-3.94ZM1003.82,14.05l-2.29-5.63-2.29,5.63h4.58Z"/>
          <polygon points="1038.28 17.55 1038.28 23.45 1022.15 23.45 1022.15 .54 1028.65 .54 1028.65 17.55 1038.28 17.55"/>
        </g>
      </g>
      <g>
        <path class="cls-4" d="M265.71,186.78v5.81h-17.3v-24.28h17v5.81h-10.34v3.42h8.83v5.39h-8.83v3.84h10.64Z"/>
        <path class="cls-4" d="M304.89,176.25c-.1-.06-.23-.13-.4-.24-.17-.1-.51-.28-1.02-.53-.51-.26-1.01-.48-1.5-.68-.49-.19-1.06-.37-1.71-.53-.65-.16-1.25-.24-1.8-.24-1.3,0-1.95.4-1.95,1.2,0,.18.03.34.09.48.06.14.17.28.32.4.16.12.31.23.46.32.15.09.38.19.69.3.31.11.58.2.8.27.22.07.56.17,1.02.31.46.14.83.25,1.12.34.98.3,1.81.6,2.5.89s1.35.64,2,1.06c.64.42,1.16.88,1.55,1.38s.7,1.11.93,1.81c.23.71.34,1.51.34,2.4,0,1.12-.18,2.14-.53,3.04-.36.9-.83,1.64-1.41,2.21-.59.57-1.28,1.05-2.1,1.43-.81.38-1.64.64-2.49.8s-1.75.23-2.7.23c-1.75,0-3.58-.26-5.49-.78s-3.6-1.2-5.06-2.06l2.87-5.85c.11.08.26.18.46.29.2.12.6.33,1.2.63.61.3,1.2.58,1.8.81.59.24,1.29.45,2.1.64.81.2,1.56.29,2.25.29,1.29,0,1.94-.36,1.94-1.07,0-.27-.08-.5-.25-.71-.17-.21-.45-.4-.83-.57-.39-.17-.76-.32-1.13-.43-.36-.12-.87-.27-1.53-.47s-1.21-.36-1.64-.51c-2.18-.73-3.76-1.62-4.72-2.65-.96-1.03-1.45-2.42-1.45-4.16,0-1.3.25-2.48.74-3.54.49-1.06,1.16-1.92,2-2.59.84-.67,1.8-1.18,2.88-1.53s2.23-.53,3.44-.53c2.59,0,5.63.87,9.1,2.62l-2.87,5.51Z"/>
        <path class="cls-4" d="M335.4,186.78v5.81h-17.3v-24.28h17v5.81h-10.34v3.42h8.83v5.39h-8.83v3.84h10.64Z"/>
        <path class="cls-4" d="M345.35,192.6v-24.28h11.15c1.15,0,2.24.25,3.27.73,1.03.49,1.9,1.13,2.6,1.92s1.26,1.69,1.67,2.7c.41,1.01.62,2.03.62,3.06,0,1.4-.31,2.72-.93,3.94-.62,1.22-1.47,2.22-2.56,2.99l5.13,8.93h-7.31l-4.27-7.45h-2.71v7.45h-6.66ZM352.01,179.32h4.21c.43,0,.82-.24,1.17-.71s.52-1.1.52-1.88-.19-1.41-.58-1.89c-.39-.48-.81-.72-1.27-.72h-4.04v5.19Z"/>
        <path class="cls-4" d="M379,168.32l4.74,16.58,4.69-16.58h7.01l-8.38,24.28h-6.63l-8.48-24.28h7.04Z"/>
        <path class="cls-4" d="M404.13,192.6v-24.28h6.66v24.28h-6.66Z"/>
        <path class="cls-4" d="M443.08,187.15c-.59,1.45-1.67,2.66-3.24,3.62-1.57.97-3.31,1.6-5.21,1.89,1.11,1.11,1.67,2.31,1.67,3.59,0,1.09-.36,2.01-1.06,2.76-.71.75-1.73,1.12-3.08,1.12s-2.77-.39-4.23-1.17l1.5-3.32c.5.43,1.05.65,1.64.65.42,0,.77-.12,1.03-.36.27-.24.4-.57.4-.98,0-.7-.43-1.45-1.3-2.25-1.56-.19-3.01-.68-4.37-1.46s-2.49-1.75-3.41-2.89-1.64-2.41-2.17-3.82c-.53-1.41-.79-2.83-.79-4.27s.29-2.95.86-4.38,1.37-2.72,2.4-3.87c1.03-1.15,2.34-2.07,3.93-2.77s3.33-1.05,5.21-1.05c2.28,0,4.29.48,6.04,1.44,1.75.96,3.05,2.24,3.91,3.86l-5.09,3.62c-.22-.57-.52-1.06-.9-1.46-.38-.41-.8-.72-1.27-.94-.47-.22-.93-.37-1.39-.47-.46-.09-.94-.14-1.43-.14-.91,0-1.73.19-2.45.56-.72.37-1.3.87-1.73,1.49-.43.62-.75,1.29-.98,2.03-.22.74-.33,1.5-.33,2.29,0,1.77.51,3.28,1.52,4.54s2.36,1.89,4.04,1.89c.66,0,1.29-.09,1.89-.28s1.18-.51,1.73-.97c.55-.46.95-1.04,1.21-1.73l5.44,3.24Z"/>
        <path class="cls-4" d="M450.55,180.42c0-1.59.31-3.13.93-4.62.62-1.49,1.48-2.79,2.56-3.92,1.08-1.12,2.4-2.02,3.95-2.7s3.21-1.01,4.97-1.01,3.45.35,5.01,1.06c1.56.71,2.86,1.64,3.9,2.8s1.86,2.49,2.45,3.96c.6,1.48.9,3,.9,4.54s-.31,3.11-.93,4.59c-.62,1.48-1.46,2.79-2.54,3.91-1.07,1.13-2.39,2.04-3.95,2.71-1.56.68-3.22,1.02-4.98,1.02s-3.45-.35-5-1.05-2.85-1.63-3.9-2.79c-1.05-1.16-1.87-2.48-2.47-3.96s-.9-3.01-.9-4.57ZM462.89,186.89c.93,0,1.75-.19,2.48-.56s1.31-.87,1.74-1.49.76-1.31.98-2.05.33-1.53.33-2.35c0-1.14-.2-2.17-.59-3.11-.4-.94-1.03-1.71-1.89-2.32-.86-.61-1.9-.91-3.1-.91-.92,0-1.75.18-2.47.55-.72.37-1.3.86-1.74,1.47-.43.61-.76,1.29-.98,2.04-.22.74-.33,1.52-.33,2.34s.11,1.63.34,2.38c.23.75.56,1.43,1.01,2.04.45.61,1.03,1.09,1.75,1.45s1.54.53,2.45.53Z"/>
        <path class="cls-4" d="M499.38,176.25c-.1-.06-.23-.13-.4-.24-.17-.1-.51-.28-1.02-.53-.51-.26-1.01-.48-1.5-.68-.49-.19-1.06-.37-1.71-.53-.65-.16-1.25-.24-1.8-.24-1.3,0-1.95.4-1.95,1.2,0,.18.03.34.09.48.06.14.17.28.32.4.16.12.31.23.46.32.15.09.38.19.69.3.31.11.58.2.8.27.22.07.56.17,1.02.31.46.14.83.25,1.12.34.98.3,1.81.6,2.5.89s1.35.64,2,1.06c.64.42,1.16.88,1.55,1.38s.7,1.11.93,1.81c.23.71.34,1.51.34,2.4,0,1.12-.18,2.14-.53,3.04-.36.9-.83,1.64-1.41,2.21-.59.57-1.28,1.05-2.1,1.43-.81.38-1.64.64-2.49.8s-1.75.23-2.7.23c-1.75,0-3.58-.26-5.49-.78s-3.6-1.2-5.06-2.06l2.87-5.85c.11.08.26.18.46.29.2.12.6.33,1.2.63.61.3,1.2.58,1.8.81.59.24,1.29.45,2.1.64.81.2,1.56.29,2.25.29,1.29,0,1.94-.36,1.94-1.07,0-.27-.08-.5-.25-.71-.17-.21-.45-.4-.83-.57-.39-.17-.76-.32-1.13-.43-.36-.12-.87-.27-1.53-.47s-1.21-.36-1.64-.51c-2.18-.73-3.76-1.62-4.72-2.65-.96-1.03-1.45-2.42-1.45-4.16,0-1.3.25-2.48.74-3.54.49-1.06,1.16-1.92,2-2.59.84-.67,1.8-1.18,2.88-1.53s2.23-.53,3.44-.53c2.59,0,5.63.87,9.1,2.62l-2.87,5.51Z"/>
      </g>
    </g>
  </g>
</svg>