<?xml version="1.0" encoding="UTF-8"?>
<svg id="Camada_2" xmlns="http://www.w3.org/2000/svg" viewBox="0 0 467.41 410.45">
  <defs>
    <style>
      .cls-1 {
        fill: #00539b;
      }

      .cls-2 {
        fill: #008752;
      }
    </style>
  </defs>
  <g id="Layer_1">
    <path class="cls-2" d="M185.23,83.61c-27.6-.01-53.35,13.9-68.47,36.99v113.3h113.42c37.76-24.94,48.15-75.76,23.22-113.51-15.13-22.91-40.72-36.71-68.17-36.78ZM116.76,0v94.58L210.36,1l139.38,139.38-93.61,93.52h94.52V0H116.76Z"/>
    <path class="cls-1" d="M86.95,322.11c-.68-9.79-4.84-17.17-12.36-21.93-6.14-3.88-14.61-5.93-24.5-5.93H15.93L0,408.5h33.24c21.14,0,36-4.46,44.17-13.23,5.35-5.77,7.74-13.35,7.1-22.57-.82-12.24-6.84-20.68-16.61-23.73,11.92-3.66,19.9-14.59,19.04-26.87ZM56.39,382.67c-4.88,5.25-14.17,5.97-23.48,5.97h-6.42l4.18-30.25h6.31c11.38,0,22.02,1.51,22.78,12.44.36,5.17-.75,9.04-3.38,11.87v-.02ZM59.48,333.93c-4.29,4.61-12.49,5.58-18.6,5.58h-7.54l3.71-25.44h6.95c9.35,0,17.79.77,18.44,10.19.28,4.02-.72,7.26-2.97,9.69v-.02ZM201.64,294.27h-23.4l-11.95,82.29-28.89-82.29h-30.11l-16.57,114.23h23.73l11.42-82.98,28.44,82.98h30.6l16.74-114.23ZM285.39,303.83c-9-6.34-20.82-9.55-35.13-9.55h-34.59l-16.11,114.23h39.03c22.92,0,40.36-6.23,51.75-18.49,14.37-15.44,15.24-35.99,14.48-46.85-1.25-17.91-7.78-31.14-19.42-39.33ZM269.18,377.02c-7.19,7.73-18.25,11.65-32.87,11.65h-9.15l10.39-74.56h6.8c20.59,0,33.5,9.69,34.64,25.92,1.14,16.23-2.16,28.78-9.8,36.99ZM345.44,314.11h43.84l2.41-19.83h-68.17l-16.08,114.23h68.99l2.93-19.83h-44.31l4.12-29.29h39.34l2.58-19.83h-39.19l3.55-25.44ZM466.47,297.4c-8.54-3.35-18.57-5.05-29.8-5.05-14.16,0-25.87,4.21-32.95,11.86-5.58,6-8.09,13.79-7.41,23.14,1.18,16.99,13.55,23.66,24.46,29.53,8.81,4.74,16.41,8.84,17.01,17.35.3,4.31-.82,7.9-3.46,10.71-3.36,3.62-9.06,5.68-15.65,5.68-9.74,0-19.32-3.93-27.54-7.61l-1.19-.54-4.94,21.32.96.34c11.8,4.19,22.82,6.33,32.76,6.33,16.36,0,29-4.29,36.55-12.4,6.04-6.49,8.71-15.28,7.96-26.14-1.28-18.3-14.83-25.99-25.75-32.17-8.24-4.65-15.31-8.68-15.81-15.84-.25-2.51.58-5,2.3-6.84,3.34-3.59,9.7-4.87,14.54-4.87,8.05.14,15.97,2.07,23.19,5.66l1.24.61,4.49-20.7-.94-.37Z"/>
  </g>
</svg>