<?xml version="1.0" encoding="UTF-8"?>
<svg id="Camada_2" xmlns="http://www.w3.org/2000/svg" viewBox="0 0 749.04 330.02">
  <defs>
    <style>
      .cls-1 {
        fill: #00afef;
      }

      .cls-2 {
        fill: #2a55a3;
      }
    </style>
  </defs>
  <g id="svg5">
    <g id="layer1">
      <g id="g880">
        <g id="path860">
          <path class="cls-1" d="M28.37,109.03l-3.2,20.41c44.5,9.08,85.2,31.43,116.74,64.1l46.61-30.61s5.37-3.63,7.88-.59c0,0,2.45,2.36-2.24,7.41l-38.28,39.7c27.71,34.5,44.56,76.45,48.43,120.53h21.82l34.56-220.96-232.33.02Z"/>
        </g>
        <path id="path862" class="cls-2" d="M347.57,199.2h-27.79l9.11-57.43h31.43c18.11,0,21.23,1.66,24.02,5.46,2.53,3.75,3.73,8.24,3.41,12.75.97,20.72-15.04,38.31-35.76,39.28-1.47.07-2.94.05-4.41-.05M366.51,290.28c-7.9,5.43-13.08,7.01-32.31,7.01h-29.74l9.81-63.48h31.39c30.35,0,34.44,13.4,34.44,26.49.7,11.62-4.39,22.84-13.59,29.98M392.47,213.63c21.05-10.86,34.29-32.54,34.36-56.22.47-12.74-4.23-25.13-13.03-34.36-9.83-10.18-21.75-13.99-43.93-13.99h-72.72l-.71,4.51-28.36,179.95c-2.09,13.15-.34,36.31,28.59,36.42h49.97c38.06,1.83,70.39-27.54,72.22-65.6.1-2.1.11-4.21.01-6.31.91-18.77-9.47-36.26-26.38-44.46"/>
        <path id="path864" class="cls-2" d="M480.87,207.17l10.39-65.4h29.51c27.23,0,32.19,7.31,32.19,21.72,1.17,22.98-16.52,42.56-39.5,43.73-1.61.08-3.22.07-4.83-.03h-27.77ZM534.05,235.03c33.2-7.69,56.55-37.47,56.1-71.54,0-35.08-21.92-54.42-61.72-54.42h-68.93l-.71,4.54-29.13,186.92c-1.3,9.57-8.53,29.46,26.21,29.44h5.78l.72-4.54,13.31-85.59h20.07l42.48,87.12,1.47,3.02h41.98l-3.89-7.77-43.74-87.18Z"/>
        <path id="path866" class="cls-2" d="M669.75,199.2h-27.8l9.13-57.43h31.43c18.11,0,21.23,1.66,24.02,5.46,2.53,3.75,3.73,8.24,3.42,12.75.97,20.72-15.04,38.31-35.76,39.28-1.47.07-2.95.05-4.42-.05M688.7,290.28c-7.88,5.43-13.08,7.01-32.3,7.01h-29.73l9.8-63.48h31.38c30.36,0,34.46,13.4,34.46,26.49.7,11.63-4.39,22.85-13.6,29.98M714.66,213.63c21.05-10.86,34.29-32.54,34.35-56.22.47-12.74-4.23-25.14-13.03-34.36-9.83-10.19-21.75-13.99-43.93-13.99h-72.74l-.71,4.52-28.3,179.55c-1.87,13.03-.67,36.69,28.55,36.79h49.95c38.06,1.84,70.4-27.53,72.23-65.59.1-2.11.11-4.22.01-6.32.9-18.76-9.49-36.24-26.4-44.42"/>
        <path id="path868" class="cls-2" d="M73.01,266.42l-2.13-2.58,49.82-56c-27.29-27.05-61.81-45.65-99.4-53.57L.98,284.15c-3.54,24.35.88,45.82,41.48,45.82h136.66c-3.69-37.3-17.84-72.8-40.83-102.4l-65.27,38.85Z"/>
        <g id="path870">
          <path class="cls-1" d="M343.68.17l-39.25,68.83c-1.53,2.67-.61,6.08,2.07,7.62.85.49,1.81.74,2.79.74h1.53l10.39-18.33h31.5l2.68,18.33h10.81L354.88.17h-11.2ZM347.35,20.15l4.44,30.19h-26.01l17.14-30.1c1.39-2.37,2.53-4.6,3.66-6.97.2,2.3.46,4.6.77,6.9"/>
        </g>
        <g id="path872">
          <path class="cls-1" d="M740.29,75.83l-10.93-74.54c-.1-.65-.65-1.12-1.3-1.13h-9.3c-.47,0-.91.26-1.14.67l-38.49,67.46c-1.65,2.9-.64,6.59,2.26,8.24.91.52,1.94.79,2.98.79.48,0,.91-.25,1.15-.67l10.01-17.63h31.5l2.51,17.2c.1.65.65,1.12,1.3,1.13h8.14c.73,0,1.32-.59,1.32-1.32,0-.07,0-.15-.02-.22M721.66,20.14l4.44,30.19h-26.01l17.14-30.1c1.39-2.37,2.53-4.6,3.66-6.97.2,2.3.46,4.6.77,6.9"/>
        </g>
        <g id="path874">
          <path class="cls-1" d="M467.71,16.74c0-6.25-3.07-16.74-23.56-16.74-7.4,0-13.87.11-18.7.34h-.67l-14.69,69.32c-.75,3.5,1.49,6.94,4.99,7.68.44.09.9.14,1.35.14h2.38l7.37-34.76h1.16l21.01,34.76h12.56l-18.17-28.83-1.78-2.83c-.77-1.27-1.62-2.58-2.43-3.83,17.25-1.03,29.13-11.27,29.13-25.3M457,17.81c0,9.96-8.86,16.68-22.05,16.68-2.58,0-5.47-.08-7.1-.15l5.47-25.55c2.25-.18,5.53-.28,9.34-.28,9.64,0,14.33,3.07,14.33,9.31"/>
        </g>
        <g id="path876">
          <path class="cls-1" d="M519.88,8.83h31.96l1.82-8.66h-42.34l-14.63,69.05c-.77,3.64,1.55,7.21,5.19,7.98.46.1.93.15,1.4.15h34.04l1.81-8.85h-31.95l5.77-26.55h30.52l1.82-8.66h-30.51l5.11-24.45Z"/>
        </g>
        <g id="path878">
          <path class="cls-1" d="M636.51.17l-4.51,21.36c-2.61,12.31-5.83,29.23-7.76,39.82-.99-3.99-2.19-8.18-3.53-12.26L605.9.17h-12.08l-14.46,68.22c-.85,4,1.71,7.92,5.7,8.77.5.11,1.02.16,1.53.16h.77l5.18-23.83c2.26-11.01,5.53-27.81,7.34-37.88.94,3.69,1.89,6.98,3.16,11.02l15.16,50.69h11.97L646.56.17h-10.05Z"/>
        </g>
      </g>
    </g>
  </g>
</svg>