<?xml version="1.0" encoding="UTF-8"?>
<svg id="Camada_2" xmlns="http://www.w3.org/2000/svg" viewBox="0 0 72.52 35.7">
  <defs>
    <style>
      .cls-1 {
        fill: #164193;
      }

      .cls-2 {
        fill: #008ad1;
      }
    </style>
  </defs>
  <g id="Camada_1-2" data-name="Camada_1">
    <path class="cls-2" d="M72.5,1.42c.1-.61-.28-.89-.79-.89h-7.68c-.51,0-.99.38-1.07.89l-1.47,8.31,10.41-4.88s.6-3.43.6-3.43Z"/>
    <path class="cls-1" d="M60.83,13.45l-3.69,20.93c-.1.46.18.94.75.94h7.68c.71,0,1.03-.42,1.12-.94l4.54-25.81-10.41,4.88h0Z"/>
    <path class="cls-1" d="M25.64,1.92l-1.07,6c-.1.56-.42.89-.99.89h-.14c-1.88-.18-3.84-.42-6.51-.42-2.52,0-4.91.89-6.04,7.07l-.89,4.83c-.18,1.12-.28,2.06-.28,2.85,0,3.51,1.83,4.22,3.89,4.22,2.67,0,4.68-.23,6.6-.42h.14c.46,0,.71.18.71.66v.23l-1.07,6c-.1.61-.38.79-1.17,1.03-1.31.42-3.69.84-6.65.84-6.97,0-12.17-3.89-12.17-11.61,0-1.17.14-2.44.38-3.79l.89-4.83C3.39,3.65,9.44,0,18.29,0c2.9,0,5.29.46,6.46.89.51.18.89.33.89.79v.23h0Z"/>
    <path class="cls-1" d="M58.14,1.4l-5.62,32.12c-.18.94-1.12,1.73-2.06,1.73h-5.8c-.84,0-1.35-.38-1.73-1.27l-6.93-15.69c-.14-.33-.28-.38-.42-.38s-.23.1-.28.42l-2.81,15.97c-.1.51-.61.94-1.12.94h-7.02c-.46,0-.79-.33-.79-.79v-.14L29.16,2.2c.18-.94,1.12-1.73,2.06-1.73h5.71c.89,0,1.27.56,1.64,1.35l7.12,16.15c.14.33.18.42.33.42s.28-.05.33-.42l2.9-16.58c.1-.51.61-.94,1.12-.94h7.02c.46,0,.75.33.75.75v.18h0v.02Z"/>
  </g>
</svg>