<?xml version="1.0" encoding="UTF-8"?>
<svg id="Camada_2" xmlns="http://www.w3.org/2000/svg" viewBox="0 0 567.3 262.73">
  <defs>
    <style>
      .cls-1 {
        fill: #005051;
      }

      .cls-2 {
        fill: #dd4f05;
      }
    </style>
  </defs>
  <g id="Layer_1">
    <g>
      <path class="cls-1" d="M561.49,7c-.18-.84-1-1.38-1.84-1.2l-190.08,39.91c-1.21.09-2.33.86-2.77,2.08-.46,1.25-.08,2.62.84,3.47.36.33.78.56,1.24.71l.49.17,80.45,110.58c.15.32.34.64.56.93,0,.02.02.04.03.05.04.05.09.1.13.16,1.2,1.5,3.18,2.27,5.17,1.81,1.77-.41,3.11-1.68,3.68-3.26L560.88,8.57c.48-.35.73-.95.61-1.57ZM437.55,73.27l-57.09-23.46,169.8-38.68-112.71,62.14ZM555.03,11.73l-98.06,136.51-16.25-70.88,114.32-65.63ZM436.22,76.7c.03.08.06.16.1.23.21.36.5.65.84.87l9.48,64.45-68.8-86.97,58.38,21.42Z"/>
      <g>
        <path class="cls-2" d="M567.3,7.32c0-4.05-3.27-7.32-7.32-7.32s-7.31,3.27-7.31,7.32,3.27,7.32,7.31,7.32,7.32-3.28,7.32-7.32Z"/>
        <path class="cls-2" d="M449.33,75.63c0-5.94-4.82-10.76-10.76-10.76s-10.77,4.82-10.77,10.76,4.82,10.77,10.77,10.77,10.76-4.82,10.76-10.77Z"/>
        <path class="cls-2" d="M382.41,48.92c0-6.93-5.61-12.54-12.55-12.54s-12.55,5.61-12.55,12.54,5.62,12.55,12.55,12.55,12.55-5.61,12.55-12.55Z"/>
        <path class="cls-2" d="M470.45,160.47c0-8.8-7.14-15.94-15.94-15.94s-15.94,7.13-15.94,15.94,7.14,15.94,15.94,15.94,15.94-7.13,15.94-15.94Z"/>
      </g>
    </g>
    <path class="cls-2" d="M.02,256.12v-18.9h4.62v18.9H.02ZM22.78,256.12l-6.73-9.54c-1.19-1.68-1.93-2.95-1.93-2.95h-.05s.11,1.37.11,2.64v9.84h-4.15v-18.9h4.62l6.13,8.8c1.23,1.76,2.08,3.31,2.08,3.31h.05s-.11-1.62-.11-3.09v-9.02h4.14v18.9h-4.16ZM40.62,256.46c-6.49,0-10.01-4.68-10.01-9.76s3.43-9.82,9.89-9.82,9.88,4.63,9.88,9.68-3.26,9.9-9.76,9.9ZM40.62,240.55c-3.6,0-5.16,2.75-5.16,6.02s1.54,6.24,5.05,6.24,5.05-2.84,5.05-6.1-1.39-6.16-4.94-6.16ZM62.86,256.12h-4.34l-7.29-18.9h4.97l3.66,10.75c.48,1.45.93,3.12.93,3.12h.06s.43-1.7.91-3.12l3.55-10.75h4.59l-7.03,18.9ZM73.32,256.12h-4.62l7.21-18.9h4.39l7.43,18.9h-4.99l-1.13-3.18h-7.18l-1.11,3.18ZM78.97,245.43c-.56-1.62-.94-3.3-.94-3.3h-.05s-.4,1.71-.96,3.3l-1.33,3.88s4.68,0,4.65,0l-1.36-3.88ZM88.59,246.64c0-5.12,3.35-9.76,9.93-9.76,2.47,0,4.29.55,5.79,1.53l-2.02,3.32c-1.02-.62-2.15-1.07-3.86-1.07-3.24,0-5,2.55-5,5.87s1.68,6.12,5.08,6.12c2.04,0,3.21-.73,4.14-1.42l1.88,3.21c-.97.85-3.3,1.98-6.05,2.01l-.43,1.14c1.2.25,2.05,1.11,2.05,2.41,0,1.59-1.47,2.73-3.69,2.73-1.25,0-2.1-.26-2.5-.45l.54-1.85c.28.14.8.31,1.45.31.8,0,1.34-.31,1.34-.94,0-.91-1.09-1.1-2.03-1.02l.94-2.52c-5.08-.94-7.57-5.08-7.57-9.63ZM110.75,256.12h-4.62l7.2-18.9h4.4l7.43,18.9h-5l-1.14-3.18h-7.18l-1.11,3.18ZM117.27,235.53c-1.79,0-2.27-.97-3.46-.97-.68,0-1.25.54-1.56.85l-1.93-1.64c.54-1.02,1.76-2.3,3.38-2.3,1.82,0,2.27.96,3.46.96.79,0,1.33-.56,1.61-.88l1.93,1.68c-.56,1.03-1.79,2.3-3.43,2.3ZM116.39,245.43c-.57-1.62-.94-3.3-.94-3.3h-.05s-.39,1.71-.96,3.3l-1.34,3.88s4.68,0,4.65,0l-1.36-3.88ZM136.03,256.46c-6.5,0-10.02-4.68-10.02-9.76s3.44-9.82,9.9-9.82,9.88,4.63,9.88,9.68-3.26,9.9-9.76,9.9ZM136.03,240.55c-3.61,0-5.16,2.75-5.16,6.02s1.53,6.24,5.04,6.24,5.05-2.84,5.05-6.1-1.39-6.16-4.93-6.16ZM155.79,256.12v-18.9h11.29v3.75h-6.75v3.69h5.96v3.48h-5.96v4.22h6.95v3.75h-11.5ZM183.86,249.71h-1.62v6.41h-4.57v-18.9h6.67c4.2,0,7.4,1.93,7.4,6.13s-3.12,6.36-7.88,6.36ZM184,240.66h-1.76v5.61h1.64c2.28,0,3.29-.91,3.29-2.86,0-1.84-.99-2.75-3.17-2.75ZM194.77,256.12v-18.9h11.29v3.75h-6.75v3.69h5.95v3.48h-5.95v4.22h6.95v3.75h-11.49ZM215.52,256.46c-3.12,0-5.14-1.16-5.98-1.84l1.87-3.18c.42.28,1.9,1.36,3.96,1.36,1.79,0,2.73-.79,2.73-1.88,0-1.47-1.96-1.79-4.18-2.92-2.32-1.13-3.94-2.64-3.94-5.73,0-3.29,2.75-5.39,6.29-5.39,3.18,0,4.86.99,5.71,1.62l-1.79,3.18c-.65-.4-2.13-1.14-3.63-1.14-1.42,0-2.24.57-2.24,1.7,0,1.34,1.48,1.71,3.49,2.61,2.5,1.11,4.68,2.39,4.68,5.82s-2.61,5.79-6.98,5.79ZM240.99,257.85c1.09,0,1.88-.45,2.27-.77l1.45,2.95c-.56.46-1.95,1.2-3.91,1.2-3.01,0-5.41-1.05-8.4-5-4.93-1.02-7.57-5.14-7.57-9.53,0-5.11,3.43-9.82,9.9-9.82s9.87,4.63,9.87,9.68c0,4.31-2.32,8.37-6.91,9.56.98,1.3,1.81,1.73,3.31,1.73ZM234.84,240.55c-3.6,0-5.16,2.75-5.16,6.02s1.52,6.24,5.04,6.24,5.05-2.84,5.05-6.1-1.38-6.16-4.93-6.16ZM256.37,256.46c-5.56,0-8.32-2.63-8.32-7.75v-11.49h4.59v11.15c0,2.98,1,4.38,3.8,4.38,2.61,0,3.63-1.56,3.63-4.17v-11.35h4.2v11.04c0,5.33-2.7,8.2-7.91,8.2ZM269.6,256.12v-18.9h4.62v18.9h-4.62ZM283.66,256.46c-3.11,0-5.14-1.16-5.98-1.84l1.87-3.18c.43.28,1.9,1.36,3.97,1.36,1.79,0,2.73-.79,2.73-1.88,0-1.47-1.95-1.79-4.18-2.92-2.32-1.13-3.94-2.64-3.94-5.73,0-3.29,2.76-5.39,6.3-5.39,3.18,0,4.85.99,5.7,1.62l-1.79,3.18c-.65-.4-2.13-1.14-3.63-1.14-1.42,0-2.24.57-2.24,1.7,0,1.34,1.48,1.71,3.49,2.61,2.5,1.11,4.68,2.39,4.68,5.82s-2.61,5.79-6.98,5.79ZM296.66,256.12h-4.61l7.2-18.9h4.39l7.43,18.9h-4.99l-1.13-3.18h-7.18l-1.11,3.18ZM302.31,245.43c-.57-1.62-.93-3.3-.93-3.3h-.05s-.41,1.71-.97,3.3l-1.32,3.88s4.67,0,4.64,0l-1.36-3.88Z"/>
    <path class="cls-1" d="M103.12,112.67c-8.8,0-15.93-7.14-15.93-15.94s7.13-15.95,15.93-15.95,15.95,7.13,15.95,15.95-7.14,15.94-15.95,15.94ZM71.39,120.65v-23.92H0v120.67h29.35v-47.83h37.15v-22.29H29.35v-26.63h42.04ZM117.07,217.4v-88.79h-27.91v88.79h27.91ZM216.43,217.4v-61.79c0-16.48-7.25-29.17-26.82-29.17-14.5,0-23.01,7.43-27.91,13.05v-10.88h-26.99v88.79h27.54v-58.52c1.82-2.36,7.97-9.61,15.95-9.61s10.69,3.8,10.69,11.96v56.17h27.54ZM258.29,180.44h54.9c3.08-34.25-10.52-54-39.32-54-25,0-45.11,17.58-45.11,46.2s17.57,46.93,47.83,46.93c18.85,0,27.72-5.07,33.89-8.51l-8.52-17.21c-4.54,2.18-10.69,5.62-22.65,5.62-13.04,0-19.57-7.07-21.02-19.03ZM257.74,162.32c1.64-10.86,6.7-16.48,15.77-16.48,9.61,0,13.23,7.24,13.41,16.48h-29.18ZM414.3,173.01c0-29.89-13.59-46.57-36.06-46.57-11.96,0-19.38,5.44-24.28,11.41v-9.24h-27v127.5h27.54v-42.34c3.08,2.36,9.61,5.79,19.93,5.79,23.2,0,39.87-18.48,39.87-46.56ZM385.12,172.83c0,16.67-6.16,25.73-17.03,25.73-6.71,0-10.68-2.71-13.59-5.25v-37.14c1.81-2.36,6.88-7.97,14.86-7.97,10.32,0,15.76,8.87,15.76,24.64Z"/>
  </g>
</svg>