<?xml version="1.0" encoding="UTF-8"?>
<svg id="Camada_2" xmlns="http://www.w3.org/2000/svg" viewBox="0 0 144.8 180.69">
  <defs>
    <style>
      .cls-1, .cls-2 {
        isolation: isolate;
      }

      .cls-3 {
        fill: #cd191e;
      }

      .cls-4 {
        fill: #2f9e41;
      }

      .cls-2 {
        font-family: OpenSans, 'Open Sans';
        font-size: 21px;
      }
    </style>
  </defs>
  <g id="Camada_1-2" data-name="Camada_1">
    <g>
      <rect class="cls-4" x="61.97" y="1" width="20" height="20" rx="2" ry="2"/>
      <rect class="cls-4" x="85.97" y="1" width="20" height="20" rx="2" ry="2"/>
      <rect class="cls-4" x="37.97" y="25" width="20" height="20" rx="2" ry="2"/>
      <rect class="cls-4" x="61.97" y="25" width="20" height="20" rx="2" ry="2"/>
      <rect class="cls-4" x="37.97" y="49" width="20" height="20" rx="2" ry="2"/>
      <rect class="cls-4" x="61.97" y="49" width="20" height="20" rx="2" ry="2"/>
      <rect class="cls-4" x="85.97" y="49" width="20" height="20" rx="2" ry="2"/>
      <rect class="cls-4" x="37.97" y="73" width="20" height="20" rx="2" ry="2"/>
      <rect class="cls-4" x="61.97" y="73" width="20" height="20" rx="2" ry="2"/>
    </g>
    <circle class="cls-3" cx="47.97" cy="11" r="11"/>
    <g>
      <path d="M0,127v-19.99h4.24v19.99H0Z"/>
      <path d="M27.03,127h-5.39l-8.7-15.12h-.12c.17,2.67.26,4.58.26,5.71v9.41h-3.79v-19.99h5.35l8.68,14.97h.1c-.14-2.6-.21-4.43-.21-5.51v-9.46h3.81v19.99Z"/>
      <path d="M43.85,121.45c0,1.8-.65,3.23-1.96,4.27-1.29,1.04-3.1,1.56-5.41,1.56-2.13,0-4.02-.4-5.66-1.2v-3.94c1.35.6,2.49,1.03,3.42,1.27.94.25,1.8.37,2.57.37.93,0,1.64-.18,2.13-.53.5-.36.75-.88.75-1.59,0-.39-.11-.74-.33-1.04-.22-.31-.54-.61-.97-.89-.42-.28-1.28-.73-2.58-1.35-1.22-.57-2.14-1.13-2.75-1.65-.61-.53-1.1-1.14-1.46-1.85-.36-.7-.55-1.52-.55-2.46,0-1.77.6-3.16,1.79-4.17,1.2-1.01,2.86-1.52,4.98-1.52,1.04,0,2.03.12,2.97.37.95.25,1.94.59,2.97,1.04l-1.37,3.29c-1.07-.44-1.95-.74-2.65-.92-.69-.17-1.38-.26-2.05-.26-.8,0-1.42.19-1.85.56s-.64.86-.64,1.46c0,.37.09.7.26.98.17.27.45.54.82.81.38.26,1.28.72,2.69,1.39,1.87.89,3.15,1.79,3.84,2.69.69.89,1.04,1.99,1.04,3.29h0Z"/>
      <path d="M55.18,127h-4.24v-16.46h-5.43v-3.53h15.09v3.53h-5.43v16.46Z"/>
      <path d="M63.71,127v-19.99h4.24v19.99h-4.24Z"/>
      <path d="M80.72,127h-4.24v-16.46h-5.43v-3.53h15.09v3.53h-5.43v16.46Z"/>
      <path d="M105.52,107.01v12.93c0,1.48-.33,2.77-1,3.88-.66,1.11-1.61,1.96-2.86,2.56-1.25.59-2.73.89-4.43.89-2.57,0-4.57-.66-5.99-1.97-1.42-1.32-2.13-3.13-2.13-5.41v-12.88h4.22v12.24c0,1.54.31,2.67.93,3.39.62.72,1.65,1.08,3.08,1.08,1.39,0,2.39-.36,3.01-1.08.63-.73.94-1.87.94-3.42v-12.21h4.22Z"/>
      <path d="M118.13,127h-4.24v-16.46h-5.43v-3.53h15.09v3.53h-5.43v16.46Z"/>
      <path d="M144.8,116.98c0,3.31-.82,5.85-2.46,7.63-1.64,1.78-3.99,2.67-7.05,2.67s-5.41-.89-7.05-2.67c-1.64-1.78-2.46-4.33-2.46-7.66s.82-5.87,2.46-7.62c1.65-1.76,4.01-2.64,7.08-2.64,3.07,0,5.42.88,7.04,2.65,1.63,1.77,2.45,4.31,2.45,7.63h0ZM130.21,116.98c0,2.23.42,3.91,1.27,5.04.85,1.13,2.11,1.7,3.8,1.7,3.38,0,5.07-2.25,5.07-6.74s-1.68-6.75-5.04-6.75c-1.69,0-2.96.57-3.81,1.71-.86,1.13-1.29,2.81-1.29,5.04h0Z"/>
    </g>
    <g>
      <path d="M18.11,151h-4.17v-19.99h11.46v3.47h-7.29v5.15h6.78v3.46h-6.78v7.9Z"/>
      <path d="M40.82,151h-11.51v-19.99h11.51v3.47h-7.27v4.39h6.77v3.47h-6.77v5.15h7.27v3.5Z"/>
      <path d="M61.59,140.81c0,3.29-.94,5.81-2.82,7.56-1.87,1.75-4.57,2.62-8.11,2.62h-5.66v-19.99h6.28c3.26,0,5.8.86,7.6,2.58,1.8,1.72,2.71,4.13,2.71,7.22h0ZM57.19,140.92c0-4.29-1.9-6.44-5.69-6.44h-2.26v13.02h1.82c4.08,0,6.12-2.19,6.12-6.58h0Z"/>
      <path d="M77.25,151h-11.51v-19.99h11.51v3.47h-7.27v4.39h6.77v3.47h-6.77v5.15h7.27v3.5Z"/>
      <path d="M85.67,139.88h1.37c1.34,0,2.33-.22,2.97-.67.64-.45.96-1.15.96-2.11s-.33-1.62-.98-2.02c-.65-.4-1.65-.6-3.02-.6h-1.29v5.4ZM85.67,143.33v7.67h-4.24v-19.99h5.82c2.72,0,4.73.5,6.03,1.49,1.3.98,1.96,2.48,1.96,4.5,0,1.18-.32,2.22-.97,3.14-.65.91-1.56,1.63-2.75,2.15,3.01,4.49,4.97,7.4,5.88,8.71h-4.7l-4.77-7.67h-2.26Z"/>
      <path d="M112.15,151l-1.45-4.76h-7.29l-1.45,4.76h-4.57l7.05-20.07h5.18l7.08,20.07h-4.57ZM109.69,142.69c-1.34-4.31-2.1-6.75-2.27-7.31-.16-.57-.28-1.01-.36-1.34-.3,1.17-1.16,4.05-2.58,8.65h5.21Z"/>
      <path d="M119.22,151v-19.99h4.24v16.49h8.11v3.5h-12.35Z"/>
    </g>
    <g class="cls-1">
      <text class="cls-2" transform="translate(36.22 175)"><tspan x="0" y="0">Brasília</tspan></text>
    </g>
  </g>
</svg>