<?xml version="1.0" encoding="UTF-8"?>
<svg id="Camada_2" xmlns="http://www.w3.org/2000/svg" viewBox="0 0 187.09 110.93">
  <defs>
    <style>
      .cls-1 {
        fill: #fdfdfd;
      }

      .cls-1, .cls-2, .cls-3 {
        fill-rule: evenodd;
      }

      .cls-2 {
        fill: #008251;
      }

      .cls-3 {
        fill: #fbba00;
      }
    </style>
  </defs>
  <g id="Camada_1-2" data-name="Camada_1">
    <g>
      <polygon class="cls-1" points="130.46 74.51 130.46 0 55.88 0 55.88 74.51 130.46 74.51 130.46 74.51"/>
      <path class="cls-2" d="M76.59,32.68h6.22c1.23,0,2.35.79,2.35,2.1,0,1.77-1.4,3-3.35,3h-6.65l1.44-5.11h0Z"/>
      <path class="cls-2" d="M107.17,32.71h5.87c2.78,0,2.9,1.9,2.9,2.44,0,1.26-1.11,3.74-4.49,3.74h-5.98s1.67-6.03,1.7-6.18h0Z"/>
      <path class="cls-2" d="M73.65,43.09h5.38c2.63,0,2.78.72,3.14,1.33.36.61.19,1.9-.06,2.34-.31.56-.85,2.28-4.21,2.28h-5.97s1.71-5.95,1.72-5.96h0Z"/>
      <path class="cls-2" d="M130.46,27.16v47.35H55.88V27.16h14.35l-7.95,27.56h16.28c7.05,0,8.28-1.65,9.71-2.85,1.91-1.61,2.94-5.43,2.08-8.09-.61-1.88-2.38-3.02-2.58-3.07,2.2-1.02,3.48-3.27,3.64-3.6.82-1.7,1.45-4.79-.58-7.27-1.69-2.06-4.97-2.63-7.36-2.67h17.43l-7.98,27.62h8.08l2.95-10.47h4.61c3.35,0,3.05,2.09,3.13,2.99l.26,7.7h7.5s-.34-8.65-.37-9.28c-.1-2.22-1.57-3.22-2.82-3.22,2.4-.65,4.49-2.84,5.32-4.24.96-1.62,1.69-4.19.73-6.74-1.38-3.71-4.94-4.32-7.42-4.37h15.56Z"/>
      <polygon class="cls-3" points="55.88 18.11 130.46 18.11 130.46 0 55.88 0 55.88 18.11 55.88 18.11"/>
      <path class="cls-2" d="M145.58,97.67c.05-.1.1-.24.1-.34.44-1.41.44-2.53-.1-3.35-.78-1.26-2.82-1.89-6.51-1.89h-8.69l-5.2,18.36h6.02l1.8-6.36h1.85c1.12,0,1.8.1,2.18.39.63.49.53,1.31.1,2.77,0,.14-.05.24-.1.34-.39,1.46-.53,2.48-.49,2.86h6.07l.14-.53c-.68,0-.39-.83.29-3.2,1.07-3.74,0-4.18-1.7-4.9,2.19-.53,3.59-2.19,4.22-4.13h0ZM139.85,98.3c-.29,1.17-1.26,1.65-2.82,1.7-.15.05-.34.05-.53.05h-2.33l1.02-3.64h2.82c1.36,0,2.23.58,1.85,1.89h0Z"/>
      <path class="cls-2" d="M14.08,92.09H5.24L0,110.44h6.02l1.6-5.68h3.06c.34,0,.68-.05.97-.05,4.66-.29,7.43-2.72,8.45-6.41,1.07-3.79-.78-6.22-6.02-6.22h0ZM14.37,98.3c-.39,1.51-1.46,2.09-2.72,2.14-.1,0-.19.05-.29.05h-2.53l1.17-4.08h1.7c1.31,0,3.16.19,2.67,1.89h0Z"/>
      <path class="cls-2" d="M118.1,92.09h-8.74l-5.24,18.36h10.15c4.18-.24,7.24-1.75,8.3-5.54.53-1.99-.05-3.69-1.89-4.18,1.41-.73,3.01-2.14,3.54-4.03,1.02-3.64-1.99-4.61-6.12-4.61h0ZM117.08,104.47c-.39,1.31-1.46,1.65-2.82,1.7h-2.91l.97-3.4h1.94c1.89,0,3.25.1,2.82,1.7h0ZM118.29,97.82c-.29,1.12-1.31,1.65-2.52,1.65h-2.48l.87-3.06h2.09c1.26,0,2.43,0,2.04,1.41h0Z"/>
      <polygon class="cls-2" points="60.51 94.51 61.19 92.09 60.51 92.09 44.34 92.09 42.98 96.94 48.37 96.94 44.53 110.44 50.55 110.44 54.39 96.94 59.83 96.94 60.51 94.51 60.51 94.51"/>
      <polygon class="cls-2" points="20.4 110.44 35.69 110.44 36.91 106.17 27.63 106.17 28.46 103.3 35.98 103.3 37.25 99.03 29.67 99.03 30.4 96.41 39.33 96.41 40.55 92.09 25.59 92.09 20.4 110.44 20.4 110.44"/>
      <path class="cls-2" d="M95.52,91.6c-.92,0-1.85.15-2.72.29-4.52,1.02-8.21,4.42-9.57,9.23-1.8,6.26,1.07,9.81,6.8,9.81.92,0,1.85-.1,2.77-.29,4.37-.97,8.16-4.27,9.66-9.47,1.36-4.81-.39-9.57-6.94-9.57h0ZM96.44,101.17c-.68,2.43-1.89,4.32-3.64,5-.49.19-.97.29-1.51.29-2.86,0-2.72-2.96-2.09-5.29.53-1.89,1.7-4.03,3.59-4.81.44-.15.87-.24,1.41-.24,2.67-.1,2.91,2.57,2.23,5.05h0Z"/>
      <path class="cls-2" d="M156.99,92.09l-.39.63-11.02,17.19-.34.53h5.88l1.36-2.43h6.02v2.43h5.97l-1.36-18.36h-6.12ZM156.6,104.23h-1.89l1.89-3.35,1.85-3.25.05,6.6h-1.89Z"/>
      <path class="cls-2" d="M73.67,92.09h-8.64l-4.52,15.98-.68,2.38h5.97l1.85-6.36h1.84c1.07,0,1.8.1,2.19.39.58.49.49,1.31.1,2.77-.05.14-.05.24-.1.34-.39,1.46-.53,2.48-.49,2.86h6.07l.15-.53c-.68,0-.39-.83.29-3.2,1.07-3.74,0-4.18-1.75-4.9,2.33-.58,3.79-2.33,4.37-4.47,1.02-3.55-.53-5.25-6.65-5.25h0ZM74.49,98.3c-.34,1.17-1.26,1.65-2.82,1.7-.15.05-.34.05-.53.05h-2.38l1.07-3.64h2.77c1.41,0,2.28.58,1.89,1.89h0Z"/>
      <path class="cls-2" d="M179.33,95.87c.58,0,1.12.1,1.46.29.39.24.58.63.53,1.26h5.68c.49-3.21-1.07-5.83-6.17-5.83-4.61,0-8.55,1.99-9.61,5.88-1.99,6.99,9.08,5.1,8.3,7.87-.24.87-1.41,1.36-2.86,1.36-.63,0-1.21-.15-1.6-.44-.44-.34-.63-.82-.58-1.46h-5.78c-.78,3.3,1.55,6.12,6.41,6.12s9.18-2.04,10.39-6.31c1.89-6.65-9.13-4.95-8.35-7.72.15-.68.87-1.02,2.19-1.02h0Z"/>
    </g>
  </g>
</svg>