<?xml version="1.0" encoding="UTF-8"?>
<svg id="Camada_2" xmlns="http://www.w3.org/2000/svg" viewBox="0 0 51.02 46.98">
  <defs>
    <style>
      .cls-1 {
        fill: #008237;
      }

      .cls-2 {
        fill: #fff;
      }

      .cls-3 {
        fill: #003f7a;
      }
    </style>
  </defs>
  <rect class="cls-2" width="51.02" height="25.51"/>
  <g>
    <path class="cls-3" d="M7.09,41.42v-8.82h3.24v8.58c0,2.23,1.03,3.26,2.86,3.26s2.8-1.07,2.8-3.37v-8.48h3.26v8.68c0,3.91-2.33,5.7-6.12,5.7s-6.04-1.64-6.04-5.56Z"/>
    <path class="cls-3" d="M28.87,46.77v-6.37c0-1.52-.43-2.29-1.68-2.29s-2.03,1.12-2.03,2.9v5.76h-3.18v-8.35c0-1.12-.04-1.91-.06-2.52h3.04c.04.39.14,1.62.16,2.23.55-1.72,1.91-2.43,3.47-2.43,2.74,0,3.51,1.84,3.51,3.87v7.2h-3.22Z"/>
    <path class="cls-3" d="M40.2,46.77h-5.39v-14.17h4.91c3.29,0,5.17,1.2,5.17,3.59,0,1.6-.85,2.66-2.55,3.06,2.17.29,3.37,1.58,3.37,3.47,0,2.86-2.31,4.05-5.5,4.05ZM39.41,34.91h-1.42v3.3h1.44c1.54,0,2.21-.51,2.21-1.66s-.71-1.64-2.23-1.64ZM39.8,40.63h-1.8v3.79h1.91c1.5,0,2.51-.49,2.51-1.95s-1.18-1.85-2.62-1.85Z"/>
  </g>
  <g>
    <path class="cls-1" d="M43.16,9.28c-2.58,1.86-5.39,3.47-8.42,4.78-1.5.65-3.12,1.1-4.82,1.31-1.21.15-2.44.23-3.69.23v9.92h24.8V3.59l-7.87,5.68h0Z"/>
    <path class="cls-1" d="M7.87,9.28c2.58,1.86,5.39,3.47,8.43,4.78,1.5.65,3.11,1.1,4.82,1.31,1.21.15,2.44.23,3.69.23v9.92H0V3.59l7.87,5.68h0Z"/>
    <path class="cls-3" d="M26.22,0v14.17c1.19,0,2.36-.07,3.52-.22h0c1.57-.2,3.05-.61,4.43-1.2,2.94-1.27,5.66-2.83,8.16-4.63h0s8.7-6.28,8.7-6.28V0h-24.8Z"/>
    <path class="cls-3" d="M24.8,0v14.17c-1.19,0-2.36-.07-3.52-.22h0c-1.57-.2-3.05-.61-4.43-1.2-2.94-1.27-5.66-2.83-8.16-4.63h0S0,1.84,0,1.84V0h24.8Z"/>
  </g>
</svg>